<?xml version="1.0" standalone="no"?>
<!DOCTYPE svg PUBLIC "-//W3C//DTD SVG 1.1//EN" "http://www.w3.org/Graphics/SVG/1.1/DTD/svg11.dtd" >
<svg xmlns="http://www.w3.org/2000/svg">
<metadata>
Created by FontForge 20120731 at Mon Apr 10 15:19:10 2017
 By admin
</metadata>
<defs>
<font id="iconfont" horiz-adv-x="1024" >
  <font-face 
    font-family="iconfont"
    font-weight="500"
    font-stretch="normal"
    units-per-em="1024"
    panose-1="2 0 6 3 0 0 0 0 0 0"
    ascent="896"
    descent="-128"
    x-height="792"
    bbox="-53 -214 1117 896"
    underline-thickness="0"
    underline-position="0"
    unicode-range="U+0078-E79B"
  />
<missing-glyph 
 />
    <glyph glyph-name=".notdef" 
 />
    <glyph glyph-name=".notdef" 
 />
    <glyph glyph-name=".null" horiz-adv-x="0" 
 />
    <glyph glyph-name="nonmarkingreturn" horiz-adv-x="341" 
 />
    <glyph glyph-name="x" unicode="x" horiz-adv-x="1001" 
d="M281 543q-27 -1 -53 -1h-83q-18 0 -36.5 -6t-32.5 -18.5t-23 -32t-9 -45.5v-76h912v41q0 16 -0.5 30t-0.5 18q0 13 -5 29t-17 29.5t-31.5 22.5t-49.5 9h-133v-97h-438v97zM955 310v-52q0 -23 0.5 -52t0.5 -58t-10.5 -47.5t-26 -30t-33 -16t-31.5 -4.5q-14 -1 -29.5 -0.5
t-29.5 0.5h-32l-45 128h-439l-44 -128h-29h-34q-20 0 -45 1q-25 0 -41 9.5t-25.5 23t-13.5 29.5t-4 30v167h911zM163 247q-12 0 -21 -8.5t-9 -21.5t9 -21.5t21 -8.5q13 0 22 8.5t9 21.5t-9 21.5t-22 8.5zM316 123q-8 -26 -14 -48q-5 -19 -10.5 -37t-7.5 -25t-3 -15t1 -14.5
t9.5 -10.5t21.5 -4h37h67h81h80h64h36q23 0 34 12t2 38q-5 13 -9.5 30.5t-9.5 34.5q-5 19 -11 39h-368zM336 498v228q0 11 2.5 23t10 21.5t20.5 15.5t34 6h188q31 0 51.5 -14.5t20.5 -52.5v-227h-327z" />
    <glyph glyph-name="bianji" unicode="&#xe608;" horiz-adv-x="1000" 
d="M939.5 662q-11.5 12 -28.5 12t-28 -12l-396 -396q-12 -12 -12 -28.5t11.5 -28t28.5 -11.5t28 11l396 396q12 12 12 28.5t-11.5 28.5zM792.5 237q-16.5 0 -28 -11.5t-11.5 -27.5v-199q0 -16 -11.5 -27.5t-28.5 -11.5h-515q-16 0 -28 11.5t-12 27.5v635q0 16 12 27.5
t28 11.5h396q17 0 28.5 11.5t11.5 28t-11.5 28t-28.5 11.5h-436q-32 0 -55.5 -23t-23.5 -56v-713q0 -33 23.5 -56.5t55.5 -23.5h595q33 0 56 23.5t23 56.5v238q0 16 -11.5 27.5t-28 11.5z" />
    <glyph glyph-name="mokuaiguanli" unicode="&#xe6e4;" 
d="M769 171h-51q0 38 -13.5 58.5t-35.5 28t-46.5 13t-51 22.5t-44.5 48q-17 -31 -43.5 -47.5t-51 -22.5t-46.5 -13.5t-35.5 -28t-13.5 -58.5h-51q0 46 11.5 75t31 41t42.5 18.5t46 14t42 21t31 45t12 80.5h51q0 -49 12 -81t31 -45t42 -20.5t46 -14t42.5 -18.5t31 -40.5
t11.5 -75.5zM596 621v-69h-137v69h137zM648 672h-241v-171h241v171zM380 85v-68h-137v68h137zM431 137h-240v-172h240v172zM812 85v-68h-137v68h137zM864 137h-240v-172h240v172v0z" />
    <glyph glyph-name="more" unicode="&#xe652;" 
d="M828.5 195q-43.5 0 -74 31t-30.5 74t30.5 74t74 31t74 -31t30.5 -74t-30.5 -74t-74 -31zM496.5 195q-43.5 0 -74 31t-30.5 74t30.5 74t74 31t74.5 -31t31 -74t-31 -74t-74.5 -31zM165 195q-43 0 -74 31t-31 74t31 74t74 31t74 -31t31 -74t-31 -74t-74 -31z" />
    <glyph glyph-name="tubiao" unicode="&#xe626;" 
d="M922 709h33v-825h-885v33l851 2zM479 674q0 14 10 24.5t24 10.5h102q14 0 24 -10.5t10 -24.5v-687h-170v687zM683 468q0 14 10 24t24 10h102q14 0 24 -10t10 -24v-481h-170v481zM274 262q0 14 10 24t24 10h103q14 0 24 -10t10 -24v-275h-171v275zM104 90h102q14 0 24 -10
t10 -24v-69h-170v69q0 14 10 24t24 10z" />
    <glyph glyph-name="fenxiang1" unicode="&#xe627;" 
d="M770 222q-38 0 -71.5 -16.5t-55.5 -46.5l-249 125q7 21 7 43q0 25 -8 48l248 124q22 -31 56 -48.5t73 -17.5q65 0 111.5 46.5t46.5 112t-46.5 111.5t-112 46t-112 -46t-46.5 -112q0 -9 1 -18l-261 -131q-46 44 -109 44q-65 0 -111.5 -46.5t-46.5 -112t46.5 -112
t112 -46.5t111.5 47l259 -130q-2 -11 -2 -22q0 -65 46.5 -111.5t112 -46.5t112 46.5t46.5 112t-46.5 111.5t-111.5 46v0z" />
    <glyph glyph-name="unie664" unicode="&#xe662;" 
d="M-53 832v0v0zM980 -129h1l-274 274q83 102 87 229q4 76 -23 150t-79 128q-44 48 -103.5 79t-125.5 40q-24 3 -50 3q-63 0 -123 -21t-109 -59q-57 -43 -94.5 -105.5t-48.5 -133.5q-8 -44 -5.5 -88t15.5 -87t35 -81q46 -81 123 -131q72 -47 157 -57q12 -3 25 -4t25 -1
q121 0 219 70l273 -275l5 -4q7 -6 15 -8.5t17 -2.5q21 0 36 14.5t15 35.5q0 19 -13 35v0zM703 245q-17 -35 -41.5 -64t-55 -51.5t-66 -38t-72.5 -22.5q-72 -12 -142 8q-68 19 -122.5 65t-83.5 110q-34 71 -30 153.5t45 150.5q35 62 95 103t131 52l6 1q6 1 10 1q18 3 36 3
q73 0 137 -30q37 -18 69.5 -45t57 -61t38.5 -73q25 -63 22 -132.5t-34 -129.5v0z" />
    <glyph glyph-name="ordinaryset" unicode="&#xe600;" 
d="M927 453h-41q-14 0 -27.5 10t-17.5 23l-24 58q-7 13 -4.5 29t12.5 26l30 30q10 10 10 24.5t-10 24.5l-49 49q-10 10 -24.5 10t-24.5 -10l-30 -30q-10 -10 -26 -12.5t-29 4.5l-58 24q-13 4 -23 17.5t-10 27.5v41q0 15 -10 25t-24 10h-70q-14 0 -24 -10t-10 -25v-41
q0 -15 -10 -28t-23 -17l-58 -24q-13 -7 -29 -4.5t-26 12.5l-30 30q-10 10 -24.5 10t-24.5 -10l-49 -49q-10 -10 -10 -24.5t10 -24.5l30 -30q10 -10 12.5 -26t-4.5 -29l-24 -58q-4 -13 -17.5 -23t-27.5 -10h-41q-15 0 -25 -10t-10 -24v-70q0 -14 10 -24t25 -10h41
q14 0 27.5 -10t17.5 -23l24 -58q7 -13 4.5 -29t-12.5 -26l-30 -30q-10 -10 -10 -24.5t10 -24.5l49 -49q10 -10 24.5 -10t24.5 10l30 30q10 10 26 12.5t29 -4.5l58 -24q13 -4 23 -17.5t10 -27.5v-41q0 -15 10 -25t24 -10h70q14 0 24 10t10 25v41q0 14 10 27.5t23 17.5l58 24
q13 7 29 4.5t26 -12.5l30 -30q10 -10 24.5 -10t24.5 10l49 49q10 10 10 24.5t-10 24.5l-30 30q-10 10 -12.5 26t4.5 29l24 58q4 13 17.5 23t27.5 10h41q15 0 25 10t10 24v70q0 14 -10 24t-25 10zM685 384q0 -72 -50.5 -122.5t-122.5 -50.5t-122.5 50.5t-50.5 122.5
t50.5 122.5t122.5 50.5t122.5 -50.5t50.5 -122.5z" />
    <glyph glyph-name="icon54" unicode="&#xe609;" 
d="M127 515l107 -550q9 -43 32.5 -69t59.5 -26h372q36 0 59.5 26t32.5 69l107 550h-770zM677 664l-49 66h-232l-49 -66h-282v-83h894v83h-282z" />
    <glyph glyph-name="icodel" unicode="&#xe64e;" 
d="M884 641h-245v29q0 30 -22.5 53.5t-51.5 23.5h-106q-29 0 -48.5 -23.5t-19.5 -53.5v-29h-251q-7 0 -12.5 -5.5t-5.5 -12.5t5.5 -12.5t12.5 -5.5h91v-467q0 -51 35 -84t87 -33h318q53 0 90 33.5t37 83.5v467h86q7 0 12.5 5.5t5.5 12.5t-5.5 12.5t-12.5 5.5zM427 670
q0 16 9 28.5t23 12.5h106q15 0 27 -13t12 -28v-29h-177v29zM764 138q0 -35 -27.5 -58t-65.5 -23h-318q-37 0 -61.5 22.5t-24.5 58.5v467h497v-467zM515 510q-7 0 -12 -5t-5 -12v-302q0 -7 5 -12t12 -5t12 5t5 12v302q0 7 -5 12t-12 5zM373.5 475q-7.5 0 -13 -5t-5.5 -13
v-230q0 -7 5.5 -12.5t13 -5.5t12.5 5.5t5 12.5v230q0 8 -5 13t-12.5 5zM621 457v-230q0 -7 5.5 -12.5t13 -5.5t12.5 5.5t5 12.5v230q0 8 -5 13t-12.5 5t-13 -5t-5.5 -13z" />
    <glyph glyph-name="close" unicode="&#xe60a;" 
d="M932 761l-42 43l-377 -378l-378 378l-42 -43l377 -377l-377 -378l42 -42l378 377l377 -377l42 42l-377 378z" />
    <glyph glyph-name="quanping" unicode="&#xe601;" 
d="M256 544h512v-512h-512v512zM64 544v192h192zM960 544v192h-192zM64 32v-192h192zM960 32v-192h-192z" />
    <glyph glyph-name="toumingdu" unicode="&#xe673;" 
d="M128 672v-256h256v256h-256zM896 672h-256v-256h256v256zM384 416v-256h256v256h-256zM128 -96h256v256h-256v-256zM896 -96v256h-256v-256h256z" />
    <glyph glyph-name="jia" unicode="&#xe60b;" 
d="M548 821h-72v-401h-401v-72h401v-401h72v401h401v72h-401v401z" />
    <glyph glyph-name="wenben" unicode="&#xe60c;" 
d="M731 -66h-438v37q29 11 59 18q28 8 63 13v765h-166l-69 -184h-33q-4 26 -7 59q-2 29 -4 67q-2 31 -3 66q-2 33 -2 59h762q0 -25 -1.5 -58t-3.5 -66q0 -7 -1.5 -30.5t-2.5 -36.5q-2 -33 -6 -60h-34l-69 184h-165v-765q37 -7 64 -13q29 -6 57 -18v-37z" />
    <glyph glyph-name="shoucang" unicode="&#xe60d;" 
d="M955.5 408.5q-6.5 18.5 -25.5 21.5l-269 42l-121 258q-8 18 -29 18v0q-20 0 -29 -18l-121 -257l-270 -41q-19 -3 -25.5 -21.5t7.5 -32.5l196 -201l-47 -284q-3 -20 13 -31.5t34 -1.5l241 132l241 -133q7 -4 15 -4h1q13 0 22.5 9t9.5 23q0 6 -2 11l-45 278l196 201
q14 13 7.5 31.5z" />
    <glyph glyph-name="shipin" unicode="&#xe651;" 
d="M944 554q-10 6 -54 -9.5t-83 -33.5l-40 -19v8q0 50 -35 84.5t-85 34.5h-462q-50 0 -85 -34.5t-35 -84.5v-400q0 -50 35 -84.5t85 -34.5h462q50 0 85 34.5t35 84.5v9q2 0 5.5 -2t14.5 -7t21.5 -9.5t26 -11t27.5 -11.5t27 -10.5t24.5 -7.5t19 -3.5t11.5 1.5q15 9 15 252.5
t-15 253.5zM320 108v384l304 -191z" />
    <glyph glyph-name="iconfont55" unicode="&#xe60e;" 
d="M96 256q-13 0 -22.5 9.5t-9.5 22.5v0q0 13 9.5 22.5t22.5 9.5h832q13 0 22.5 -9.5t9.5 -22.5v0q0 -13 -9.5 -22.5t-22.5 -9.5h-832z" />
    <glyph glyph-name="a" unicode="&#xe646;" 
d="M511 501h-2q-4 -25 -9 -38l-82 -226h183l-82 226q-4 11 -8 38zM64 746v-895h895v895h-895zM678 26l-55 149h-227l-52 -149h-78l208 544h75l207 -544h-78z" />
    <glyph glyph-name="cachu" unicode="&#xe628;" 
d="M559 785l-328 -255v-255h401l328 291v219h-401zM340 530l219 182h292l-219 -182h-292zM924 566l-256 -218v145l256 219v-146zM158 238l36 37q-3 0 -7.5 1t-17.5 7t-23.5 15t-21.5 26t-15.5 39t-2 56t14.5 74l-36 37v0q-32 -100 -17 -181q16 -87 90 -111zM85 129
q1 -1 4 -1t13 2.5t21.5 9t30.5 22.5t40 40v0q-50 15 -82 -13q-22 -19 -27 -60zM194 19q3 -1 7 -2t15.5 1.5t20.5 11.5t18 34.5t12 64.5l-7.5 -5t-18.5 -14.5t-21.5 -22t-18 -30.5t-7.5 -38zM413 -17q0 5 -2 16t-20.5 48.5t-50.5 81.5l-5 -36q-4 -91 78 -110zM413 165l-13 -7
q-17 -17 40 -40q31 -13 82 -26q56 -15 95.5 -10.5t63.5 15.5t37.5 28.5t18 27.5t4.5 12q-44 -14 -94 -19.5t-90 -2.5t-73.5 7.5t-51.5 9.5z" />
    <glyph glyph-name="shoujidadianhua" unicode="&#xe631;" 
d="M713 896h-402q-30 0 -51.5 -21.5t-21.5 -51.5v-878q0 -30 21.5 -51.5t51.5 -21.5h402q30 0 51.5 21.5t21.5 51.5v878q0 30 -21.5 51.5t-51.5 21.5zM457 841h110q7 0 12.5 -5.5t5.5 -13t-5.5 -12.5t-12.5 -5h-110q-7 0 -12.5 5t-5.5 12.5t5.5 13t12.5 5.5zM512 -91
q-23 0 -39 16t-16 38.5t16 38.5t39 16t39 -16t16 -38.5t-16 -38.5t-39 -16zM741 55h-458v695h458v-695zM55 384.5q0 111.5 65 200.5q7 10 5 21t-11 17.5t-20 5t-18 -10.5q-76 -105 -76 -234t76 -234q8 -11 22 -11q9 0 16 5q9 7 11 18t-5 21q-65 90 -65 201.5zM151 384
q0 70 37 130q6 9 3 20t-12.5 17t-20.5 3.5t-17 -11.5q-45 -73 -45 -159q0 -87 46 -160q8 -13 23 -13q8 0 14 5q10 6 12.5 17t-3.5 20q-37 60 -37 131zM948 618q-7 9 -18 10.5t-20 -5t-11 -17.5t5 -21q65 -89 65 -200.5t-65 -201.5q-7 -10 -5 -21t11 -18q7 -5 16 -5
q14 0 22 11q76 105 76 234t-76 234zM883 543q-6 9 -17 11.5t-20.5 -3.5t-12.5 -17t3 -20q37 -60 37 -130q0 -71 -37 -131q-6 -9 -3.5 -20t12.5 -17q6 -5 14 -5q15 0 23 13q46 73 46 160q0 86 -45 159z" />
    <glyph glyph-name="huandengpian" unicode="&#xe622;" 
d="M832 650h-640q-15 0 -25 -10.5t-10 -25.5v-568q0 -15 10 -25.5t25 -10.5h640q15 0 25 10.5t10 25.5v568q0 15 -10 25.5t-25 10.5v0zM761 117h-498v178l107 106l178 -177l106 106l107 -106v-107v0zM690 401q-30 0 -50.5 21t-20.5 50.5t20.5 50t50 20.5t50.5 -20.5t21 -50
t-21 -50.5t-50 -21v0zM690 401zM125 227l-116 103l116 104v-207zM885 227l116 103l-116 104v-207z" />
    <glyph glyph-name="jia1" unicode="&#xe653;" 
d="M0 812v-1024h1024v1024h-1024zM759 257h-204v-204h-69v204h-204v69h204v204h69v-204h204v-69z" />
    <glyph glyph-name="beijing" unicode="&#xe602;" 
d="M843 798h-657q-49 0 -83.5 -37.5t-34.5 -90.5v-568q0 -53 34.5 -90.5t83.5 -37.5h657q50 0 84.5 37.5t34.5 90.5v568q0 53 -34.5 90.5t-84.5 37.5zM886 464q-51 -3 -91.5 -21.5t-65.5 -43.5t-47.5 -50t-48 -43t-55.5 -19q-31 -1 -58.5 11t-47 30t-37.5 36.5t-38.5 32
t-40.5 13.5q-33 2 -68.5 -16t-76 -45.5t-68.5 -37.5v359q0 19 12.5 32.5t30.5 13.5h657q18 0 30.5 -13.5t12.5 -32.5v-206v0zM244 604q0 36 24 61t57 25t56.5 -25t23.5 -61t-23.5 -61.5t-56.5 -25.5t-57 25.5t-24 61.5v0v0z" />
    <glyph glyph-name="fuzhihuihua" unicode="&#xe60f;" 
d="M128 -84h640v-64h-640v64v0zM64 620h64v-768h-64v768v0zM704 748h-448q-18 0 -31 -7t-19 -16.5t-9.5 -19t-4.5 -16.5v-7v-638q0 -28 16 -44t32 -18l16 -2h576q28 0 44 16t18 32l2 16v512l-192 192v0zM320 300h448v-64h-448v64v0zM320 428h448v-64h-448v64v0zM320 172h448
v-64h-448v64v0zM704 556v128l128 -128h-128v0z" />
    <glyph glyph-name="xuanze" unicode="&#xe618;" 
d="M512 812q-104 0 -199 -40.5t-163.5 -109t-109 -163.5t-40.5 -199t40.5 -199t109 -163.5t163.5 -109t199 -40.5t199 40.5t163.5 109t109 163.5t40.5 199t-40.5 199t-109 163.5t-163.5 109t-199 40.5zM781 419l-323 -322q-6 -6 -14 -6t-14 6l-42 42l-140 140q-6 6 -6 14
t6 14l42 42q6 6 14 6t14 -6l126 -126l266 267q6 5 14.5 5t14.5 -5l42 -43q6 -5 6 -13.5t-6 -14.5zM738 442z" />
    <glyph glyph-name="dapeida" unicode="&#xe656;" 
d="M680 281q-70 -42 -191 -88.5t-178 -55.5q-56 -10 -122 -1.5t-79 31.5q-9 18 -8 45t9 47l41 -41q-3 -17 5 -27q9 -13 69.5 -15t107.5 8q49 10 145.5 47.5t158.5 72.5q71 41 155 113.5t79 90.5q-6 23 -50 30.5t-85 4.5l-40 -3q-2 6 -5 17t-13.5 38.5t-22 49t-30.5 39
t-40 18.5q-32 0 -68.5 -13.5t-55.5 -27.5l-20 -14q-12 3 -29 7.5t-51 10t-45 1.5q-6 -3 -10 -12.5t-6 -27t-3 -33.5t-2 -40t-2 -39q-3 -28 -7.5 -65.5t-7.5 -60.5l-4 -24q-3 -1 -7 -4l-36 27q14 83 20 150q0 9 2 30.5t3 32.5t3 29t4 28t5.5 21.5t8.5 17.5t11 9q18 4 50 2
t64 -8l31 -5q9 6 24 15.5t58 24t80 13.5q23 0 45.5 -18t37.5 -43t27 -50.5t17 -42.5l6 -18q4 1 10 1.5t25 2t36.5 1t39 -3t38 -8t29 -16.5t14.5 -27q5 -26 -17 -60t-63 -68.5t-80 -62t-81 -53.5v0zM353 73q93 -12 116 -24q5 -3 9.5 -6t6.5 -5t4 -4.5t2 -3.5l1 -1
q32 15 57 15q10 0 24.5 -3.5t23.5 -6.5l9 -4q5 11 23 19q30 13 115 25q29 3 29 -21v-88q0 -15 -1.5 -31.5t-4 -30.5t-5 -25.5t-4 -18.5t-1.5 -6q-96 5 -128 32q-10 8 -18 20.5t-11 20.5t-3 9q-24 -7 -48 -7q-10 0 -22 1.5t-19 3.5l-7 2q-8 -34 -32 -50q-15 -11 -47 -19
t-56 -11l-24 -2q-16 61 -16 112v90q0 8 7.5 14t19.5 4v0v0zM608 -26l4 2q17 -42 33 -59q13 -12 32.5 -18t33.5 -6h13q9 39 9 66v68q-53 -7 -81 -18q-15 -6 -44 -17v-18v0zM550 -36q8 0 18 1v41q-11 2 -18.5 2t-18.5 -2v-41q10 -1 19 -1v0zM365 -41q0 -12 2.5 -27.5
t5.5 -25.5l2 -10q53 4 77 20q7 5 15.5 20t13 27l4.5 12q2 0 6 -2v19q1 0 2 1q-46 15 -65 25q-8 4 -23.5 6.5t-27.5 2.5h-12v-68v0z" />
    <glyph glyph-name="icocrop" unicode="&#xe64f;" 
d="M759 167v443l125 124l-22 22l-124 -124h-443v148h-30v-148h-148v-31h148v-443l-125 -124l22 -22l124 125h443v-148h30v148h149v30h-149zM295 601h413l-413 -412v412zM729 167h-412l412 413v-413z" />
    <glyph glyph-name="wenzhang" unicode="&#xe629;" 
d="M755 493q-49 0 -84 34.5t-35 84.5v137h-429q-30 0 -51 -21t-21 -52v-753q0 -30 21 -51t51 -21h610q30 0 51 21t21 51v570h-134zM770 12h-516v49h516v-49zM770 168h-516v49h516v-49zM770 324h-516v48h516v-48zM683 749v-137q0 -30 21 -51.5t51 -21.5h134z" />
    <glyph glyph-name="yaoyiyao" unicode="&#xe632;" horiz-adv-x="1136" 
d="M897 812q91 0 155.5 -64.5t64.5 -154.5q0 -13 -9 -21.5t-21 -8.5t-20.5 8.5t-8.5 21.5q0 66 -47 113t-114 47q-12 0 -20.5 8.5t-8.5 21t8.5 21t20.5 8.5v0zM874 719q-12 0 -21 -9t-9 -21t9 -20.5t21 -8.5q37 0 63.5 -26.5t26.5 -64.5q0 -12 9 -20.5t21 -8.5t20.5 8.5
t8.5 20.5q0 62 -43.5 106t-105.5 44v0zM183 24l-10 -39q-6 -26 4 -47q14 -30 53 -40q6 -2 71 -19l283 -74q27 -6 35 -9q13 -3 18 -5h1h4q10 -3 21 -3q26 0 47 14.5t28 39.5l18 63l7 1q42 10 69 23q50 22 80 61q34 44 56 118q24 80 20 158q-5 81 -89 157l-1 1l25 92v0
q9 33 -6 61.5t-47 36.5l-422 113q-8 2 -16 2q-26 0 -47 -15t-28 -39l-3 -9l-3 6q-20 27 -37 50q-14 20 -23 34q-12 17 -17 24q-20 32 -62 32q-29 0 -50 -15q-26 -18 -32 -53q-7 -34 13 -62l58 -85l-5 -1q-15 -3 -29 -12q-25 -16 -31 -48q-7 -30 6 -53q6 -11 16 -28l2 -3
l-4 -2q-13 -3 -25 -11q-34 -23 -37 -62q-1 -24 12 -45v0l21 -31l-5 -1q-18 -4 -31 -14q-32 -24 -33 -63q0 -20 11 -37q4 -6 19 -29q12 -18 31 -45q40 -59 52 -76q4 -5 10 -10l2 -2v0zM474 47q22 0 38 -16t16 -38t-16 -38t-38.5 -16t-38 16t-15.5 38t15.5 38t38.5 16v0z
M509 555q2 9 10 15.5t18 6.5q4 0 8 -1l163 -44q12 -3 18.5 -13.5t2.5 -22.5q-2 -10 -10.5 -16t-18.5 -6q-4 0 -7 1l-163 43q-12 3 -18.5 14t-2.5 23v0zM120 206q-7 9 -5 21t11 18q6 5 15 5q16 0 24 -13l92 -131q7 -10 5 -22q-2 -11 -12 -18q-6 -5 -15 -5q-15 0 -24 13
l-91 132v0zM866 379l5 -5q22 -23 34 -43q22 -35 26 -76.5t-12 -104.5q-10 -37 -24 -71q-13 -33 -26 -52q-23 -35 -94 -61l-5 -2l62 237l4 -4q8 -9 20 -9q16 0 24 13t0 27q-2 4 -9 15q-36 52 -33 81q3 28 26 52l2 3v0zM362 443v1q12 44 22 81q15 54 23 85q11 40 13 46
q2 9 14 9q2 0 4 -1q3 -1 26 -7q21 -5 58 -15q61 -17 170 -46q51 -14 53 -15l109 -29q8 -3 6 -13l-30 -114v-1q-33 -32 -42 -66.5t3 -78.5v-1l-1 -5q-29 -107 -51 -187q-25 -90 -38 -140q-18 -64 -20 -71q-5 -17 -20 -17q-3 0 -7 1l-173 45q-211 54 -234 60q-4 1 -7 3l-1 1v1
v6l8 35h2q42 9 62 51q12 25 1 55q-6 16 -22 40h-1l-3 4l5 1h1q42 12 57 56v0l1 1v1q10 40 -21 81l-2 4l4 1q38 11 51 51q9 25 -1 52q-5 14 -18 34l-1 1v0zM201 540q7 4 14 4q17 0 25 -14l87 -134q7 -10 4 -22q-2 -11 -11 -17q-7 -4 -15 -4q-16 0 -24 13l-87 134
q-7 10 -4.5 21.5t11.5 18.5v0zM318 530l-130 182q-7 9 -5 21t11 18q7 5 15 5q16 0 24 -12l103 -146l-18 -68v0zM149.5 375.5q1.5 11.5 11.5 18.5q6 4 15 4q15 0 24 -12l92 -131q7 -9 5.5 -20.5t-11.5 -18.5q-7 -5 -15 -5q-15 0 -24 13l-92 130q-7 10 -5.5 21.5z" />
    <glyph glyph-name="aligncenter" unicode="&#xe635;" horiz-adv-x="1025" 
d="M1024 128v-73q0 -15 -11 -26t-26 -11h-950q-15 0 -26 11t-11 26v73q0 15 11 26t26 11h950q15 0 26 -11t11 -26zM805 347v-73q0 -15 -11 -25.5t-26 -10.5h-512q-15 0 -26 10.5t-11 25.5v73q0 15 11 26t26 11h512q15 0 26 -11t11 -26zM951 567v-73q0 -15 -11 -26t-26 -11
h-804q-15 0 -26 11t-11 26v73q0 15 11 26t26 10h804q15 0 26 -10.5t11 -25.5zM731 786v-73q0 -15 -10.5 -26t-25.5 -10h-366q-15 0 -26 10.5t-10 25.5v73q0 15 10.5 26t25.5 11h366q15 0 26 -11t10 -26z" />
    <glyph glyph-name="alignjustify" unicode="&#xe636;" horiz-adv-x="1025" 
d="M1024 128v-73q0 -15 -11 -26t-26 -11h-950q-15 0 -26 11t-11 26v73q0 15 11 26t26 11h950q15 0 26 -11t11 -26zM1024 347v-73q0 -15 -11 -25.5t-26 -10.5h-950q-15 0 -26 10.5t-11 25.5v73q0 15 11 26t26 11h950q15 0 26 -11t11 -26zM1024 567v-73q0 -15 -11 -26t-26 -11
h-950q-15 0 -26 11t-11 26v73q0 15 11 26t26 10h950q15 0 26 -10.5t11 -25.5zM1024 786v-73q0 -15 -11 -26t-26 -10h-950q-15 0 -26 10.5t-11 25.5v73q0 15 11 26t26 11h950q15 0 26 -11t11 -26z" />
    <glyph glyph-name="alignleft" unicode="&#xe637;" horiz-adv-x="1025" 
d="M1024 128v-73q0 -15 -11 -26t-26 -11h-950q-15 0 -26 11t-11 26v73q0 15 11 26t26 11h950q15 0 26 -11t11 -26zM805 347v-73q0 -15 -11 -25.5t-26 -10.5h-731q-15 0 -26 10.5t-11 25.5v73q0 15 11 26t26 11h731q15 0 26 -11t11 -26zM951 567v-73q0 -15 -11 -26t-26 -11
h-877q-15 0 -26 11t-11 26v73q0 15 11 26t26 10h877q15 0 26 -10.5t11 -25.5zM731 786v-73q0 -15 -10.5 -26t-25.5 -10h-658q-15 0 -26 10.5t-11 25.5v73q0 15 11 26t26 11h658q15 0 26 -11t10 -26z" />
    <glyph glyph-name="alignright" unicode="&#xe638;" horiz-adv-x="1025" 
d="M1024 128v-73q0 -15 -11 -26t-26 -11h-950q-15 0 -26 11t-11 26v73q0 15 11 26t26 11h950q15 0 26 -11t11 -26zM1024 347v-73q0 -15 -11 -25.5t-26 -10.5h-731q-15 0 -26 10.5t-11 25.5v73q0 15 11 26t26 11h731q15 0 26 -11t11 -26zM1024 567v-73q0 -15 -11 -26t-26 -11
h-877q-15 0 -26 11t-11 26v73q0 15 11 26t26 10h877q15 0 26 -10.5t11 -25.5zM1024 786v-73q0 -15 -11 -26t-26 -10h-658q-15 0 -26 10.5t-10 25.5v73q0 15 10.5 26t25.5 11h658q15 0 26 -11t11 -26z" />
    <glyph glyph-name="bold" unicode="&#xe639;" 
d="M427 27q42 -18 80 -18q215 0 215 191q0 65 -24 103q-15 25 -34.5 42t-38.5 26.5t-46.5 14.5t-48 6t-53.5 1q-42 0 -58 -6q0 -30 -0.5 -90.5t-0.5 -90.5q0 -4 -0.5 -38t0 -55.5t2.5 -48t7 -37.5v0zM419 453q24 -4 62 -4q47 0 82 7.5t63 25.5t42.5 51t14.5 81
q0 40 -16.5 70t-45 47t-62 25t-70.5 8q-29 0 -75 -7q0 -29 2.5 -87t2.5 -87q0 -15 -0.5 -45.5t-0.5 -44.5q0 -27 1 -40v0zM110 -55l1 54q8 2 48 9t61 15q4 7 7 15.5t5 19.5t3.5 19t1.5 21v19v38q0 561 -12 586q-3 4 -13 8t-25.5 6.5t-28.5 4t-27.5 2.5t-17.5 1l-2 48
q56 1 194 6.5t213 5.5q13 0 39 -0.5t39 -0.5q40 0 78 -7.5t73.5 -24t61.5 -40.5t42 -59.5t16 -78.5q0 -30 -9.5 -54.5t-22 -41t-36.5 -33t-42 -26t-48 -22.5q88 -20 146.5 -76.5t58.5 -141.5q0 -58 -20 -103t-53.5 -74.5t-78.5 -49t-93 -27.5t-101 -8q-25 0 -75.5 1.5
t-75.5 1.5q-60 0 -175 -6t-132 -7v0z" />
    <glyph glyph-name="chain" unicode="&#xe63a;" 
d="M869 201q0 23 -16 39l-119 119q-16 16 -39 16q-24 0 -41 -18q1 -2 10.5 -11t12.5 -12.5t8.5 -11t7.5 -14.5t2 -15q0 -23 -16 -39t-39 -16q-9 0 -16 2t-14.5 7.5t-11 8.5t-12 12t-10.5 11q-19 -18 -19 -42q0 -23 16 -39l118 -118q15 -15 39 -15q22 0 38 14l84 84
q16 16 16 38h1zM467 604q0 23 -16 39l-118 118q-16 16 -39 16q-22 0 -39 -15l-83 -84q-16 -16 -16 -38q0 -23 16 -39l118 -119q16 -15 39 -15q24 0 41 18q-1 1 -10.5 10t-12.5 12.5t-8.5 11t-7.5 14.5t-2 16q0 22 16 38t39 16q9 0 16 -2t14.5 -7t11 -8.5t12 -12.5t10.5 -11
q19 18 19 42v0zM978 201.5q0 -68.5 -48 -116.5l-84 -83q-48 -48 -116 -48q-69 0 -117 49l-118 118q-47 48 -47 116q0 70 50 120l-50 50q-49 -50 -119 -50q-68 0 -116 48l-119 118q-48 48 -48 117t48 116l84 83q48 48 116 48q69 0 117 -49l118 -118q47 -47 47 -116
q0 -70 -50 -119l50 -51q49 51 119 51q68 0 116 -48l119 -119q48 -48 48 -116.5z" />
    <glyph glyph-name="chainbroken" unicode="&#xe63b;" 
d="M287 170l-146 -147q-6 -5 -13 -5t-13 5q-5 6 -5 13.5t5 13.5l146 146q6 5 13.5 5t12.5 -5q6 -6 6 -13.5t-6 -12.5zM384 146v-183q0 -8 -5 -13t-13 -5t-13.5 5t-5.5 13v183q0 8 5.5 13.5t13.5 5t13 -5.5t5 -13zM256 274q0 -8 -5 -13t-13 -5h-183q-8 0 -13.5 5t-5 13
t5.5 13.5t13 5.5h183q8 0 13 -5.5t5 -13.5zM978 201q0 -68 -48 -116l-84 -83q-48 -48 -116 -48q-69 0 -117 49l-191 191q-12 12 -24 32l137 11l156 -157q15 -15 38.5 -15.5t39.5 14.5l84 84q16 16 16 38q0 23 -16 39l-157 157l10 137q20 -12 32 -24l192 -192q48 -49 48 -117
v0zM626 615l-137 -10l-156 156q-16 16 -39 16q-22 0 -39 -15l-83 -84q-16 -16 -16 -38q0 -23 16 -39l156 -156l-10 -138q-20 12 -32 24l-192 192q-48 50 -48 117q0 69 48 116l84 83q48 48 116 48q69 0 117 -49l191 -191q12 -12 24 -32zM987.5 567q-0.5 -8 -5.5 -13.5
t-13 -4.5h-183q-8 0 -13 5t-5 13t5 13t13 5h183q8 0 13.5 -5t5 -13zM677 878v-183q0 -8 -5.5 -13.5t-13.5 -5t-13 5.5t-5 13v183q0 8 5 13t13 5t13.5 -5t5.5 -13zM909 791l-146 -146q-6 -5 -13 -5t-13 5q-6 6 -6 13.5t6 12.5l146 147q6 5 13 5t13 -5q5 -6 5 -13.5t-5 -13.5z
" />
    <glyph glyph-name="dedent" unicode="&#xe63c;" 
d="M219 585v-329q0 -7 -5 -12.5t-13 -5.5t-13 5l-165 164q-5 6 -5 14t5 13l165 164q5 5 13 5t13 -5t5 -13zM1024 146v-109q0 -8 -5.5 -13.5t-12.5 -5.5h-988q-7 0 -12.5 5.5t-5.5 13.5v109q0 8 5.5 13.5t12.5 5.5h988q7 0 12.5 -5.5t5.5 -13.5zM1024 366v-110
q0 -7 -5.5 -12.5t-12.5 -5.5h-622q-7 0 -12.5 5.5t-5.5 12.5v110q0 7 5.5 12.5t12.5 5.5h622q7 0 12.5 -5.5t5.5 -12.5zM1024 585v-110q0 -7 -5.5 -12.5t-12.5 -5.5h-622q-7 0 -12.5 5.5t-5.5 12.5v110q0 8 5.5 13t12.5 5h622q7 0 12.5 -5t5.5 -13zM1024 805v-110
q0 -8 -5.5 -13t-12.5 -5h-988q-7 0 -12.5 5t-5.5 13v110q0 7 5.5 12.5t12.5 5.5h988q7 0 12.5 -5.5t5.5 -12.5z" />
    <glyph glyph-name="eraser" unicode="&#xe63d;" horiz-adv-x="1098" 
d="M512 91l192 220h-439l-192 -220h439zM1091 707q8 -20 5 -41t-17 -37l-512 -586q-22 -25 -55 -25h-439q-22 0 -40 12t-27 31q-8 20 -5 41t17 37l512 586q22 25 55 25h439q22 0 40 -12t27 -31z" />
    <glyph glyph-name="indent" unicode="&#xe63e;" 
d="M201 421q0 -8 -5 -14l-165 -164q-5 -5 -13 -5q-7 0 -12.5 5.5t-5.5 12.5v329q0 8 5.5 13t12.5 5q8 0 13 -5l165 -164q5 -5 5 -13zM1024 146v-109q0 -8 -5.5 -13.5t-12.5 -5.5h-988q-7 0 -12.5 5.5t-5.5 13.5v109q0 8 5.5 13.5t12.5 5.5h988q7 0 12.5 -5.5t5.5 -13.5z
M1024 366v-110q0 -7 -5.5 -12.5t-12.5 -5.5h-622q-7 0 -12.5 5.5t-5.5 12.5v110q0 7 5.5 12.5t12.5 5.5h622q7 0 12.5 -5.5t5.5 -12.5zM1024 585v-110q0 -7 -5.5 -12.5t-12.5 -5.5h-622q-7 0 -12.5 5.5t-5.5 12.5v110q0 8 5.5 13t12.5 5h622q7 0 12.5 -5t5.5 -13zM1024 805
v-110q0 -8 -5.5 -13t-12.5 -5h-988q-7 0 -12.5 5t-5.5 13v110q0 7 5.5 12.5t12.5 5.5h988q7 0 12.5 -5.5t5.5 -12.5z" />
    <glyph glyph-name="italic" unicode="&#xe63f;" 
d="M219 -54l10 49q4 1 47 12t63 22q17 20 24 57q0 4 35 165.5t65.5 310.5t29.5 169v15q-14 7 -31 10t-39.5 4.5t-33.5 3.5l11 59q19 -1 68.5 -3.5t85.5 -4t69 -1.5q27 0 56 1.5t69 4t57 3.5q-3 -22 -11 -51q-17 -6 -58 -16.5t-62 -18.5q-5 -11 -8.5 -24.5t-5 -23t-4 -26
t-3.5 -24.5q-16 -84 -50.5 -239t-44.5 -203q-1 -5 -7 -33t-11.5 -51.5t-9.5 -48t-3 -32.5v-11q10 -2 106 -17q-2 -26 -9 -57q-6 0 -18.5 -1t-18.5 -1q-17 0 -50 6t-49 6q-79 1 -118 1q-29 0 -81.5 -5t-69.5 -7v0z" />
    <glyph glyph-name="underline" unicode="&#xe640;" 
d="M100 769q-21 1 -25 2l-2 50q8 1 23 1q34 0 64 -3q75 -4 95 -4q49 0 96 2q66 2 83 3q32 0 49 1v-8l1 -36v-5q-34 -6 -71 -6q-34 0 -45 -14q-7 -8 -7 -75v-19v-14l1 -131l8 -160q3 -71 29 -116q20 -33 55 -52q50 -27 101 -27q59 0 109 16q32 10 56 29q28 21 38 37
q20 32 30 65q12 41 12 131q0 45 -2 73t-6.5 70t-7.5 91l-2 34q-3 38 -14 50q-19 20 -44 19l-57 -1l-8 2l1 49h48l117 -6q44 -1 112 6l10 -1q4 -22 4 -29q0 -4 -2 -18q-26 -7 -48 -7q-42 -7 -45 -10q-9 -9 -9 -24q0 -4 1 -15t1 -18q4 -11 12 -226q4 -111 -8 -174
q-9 -43 -24 -69q-21 -38 -64 -71q-42 -32 -104 -51q-62 -18 -145 -18q-96 0 -163 26q-68 27 -102 70q-35 43 -47 111q-9 46 -9 135v191q0 107 -10 121q-14 21 -84 23h-1zM951 -37v37q0 8 -5 13t-14 5h-841q-8 0 -13 -5t-5 -13v-37q0 -8 5 -13t13 -5h841q8 0 13.5 5t5.5 13z
" />
    <glyph glyph-name="textheight" unicode="&#xe641;" horiz-adv-x="1025" 
d="M997 91q19 0 24 -10.5t-7 -25.5l-72 -92q-11 -15 -27.5 -15t-28.5 15l-72 92q-11 15 -6 25.5t24 10.5h46v586h-46q-19 0 -24 10.5t6 25.5l72 92q12 15 28.5 15t27.5 -15l72 -92q12 -15 7 -25.5t-24 -10.5h-46v-586h46zM46 822l31 -15q7 -3 121 -3q25 0 75.5 1t75.5 1h61
h62h167q3 0 12 -0.5t12 0t9 2t10 5t8 9.5l24 1q3 0 8.5 -0.5t7.5 -0.5q2 -64 2 -192q0 -45 -3 -62q-23 -8 -39 -10q-14 25 -31 73q-2 5 -6.5 27.5t-8 42t-4.5 19.5q-3 5 -6.5 7.5t-9 3.5t-7.5 1.5t-10.5 0t-9.5 0.5h-38h-42.5t-36.5 -1t-41 -3q-5 -47 -4 -78q0 -54 1 -222
t1 -260q0 -9 -1.5 -41t0 -52.5t7.5 -39.5q23 -11 71 -23.5t68 -21.5q3 -23 3 -29q0 -8 -2 -16l-19 -1q-43 -1 -124.5 4.5t-118.5 5.5q-28 0 -86 -5t-87 -5q-2 29 -2 30v5q10 15 35.5 24.5t56.5 16.5t44 15q11 24 11 219q0 58 -1.5 173.5t-1.5 173.5v66v9.5v14t-0.5 14.5
t-1.5 13.5t-3 8.5q-6 7 -92 7q-19 0 -53.5 -7t-45.5 -15t-19.5 -41.5t-18 -63t-24.5 -31.5q-24 15 -32 26v218z" />
    <glyph glyph-name="textwidth" unicode="&#xe642;" 
d="M119 822l31 -15q7 -3 121 -3q25 0 75.5 1t75.5 1q40 0 140.5 0.5t174 0.5t141.5 -2q19 -1 32 17l24 1q2 0 7.5 -0.5t8.5 -0.5q1 -64 1 -192q0 -45 -3 -62q-22 -8 -39 -10q-14 25 -31 73q-1 5 -6 27t-8.5 42t-4.5 21q-5 7 -15 10q-3 2 -38 2q-17 0 -53 0.5t-59 0.5
t-53.5 -1.5t-54.5 -3.5q-5 -47 -5 -78l1 -87v30q0 -32 0.5 -88.5t0.5 -102.5v-88q0 -9 -1 -40.5t0 -52t7 -39.5q23 -12 71 -24.5t69 -21.5q2 -23 2 -28q0 -8 -1 -17l-20 -1q-43 -1 -124 5t-119 6q-28 0 -86 -5.5t-87 -5.5q-1 29 -1 30v5q9 16 34.5 25t56.5 16.5t45 15.5
q4 9 6.5 42t3.5 83t1 88.5t-0.5 88t-0.5 50.5q0 4 -1.5 12.5t-1.5 12.5q0 5 0.5 26t0.5 41.5v43.5t-1.5 38.5t-4.5 18.5q-6 7 -92 7q-24 0 -93.5 -8t-78.5 -14q-11 -7 -19.5 -41t-18 -63.5t-24.5 -30.5q-24 15 -32 25v219h46zM822 90q7 0 24 -11t32.5 -24t34 -28.5
t20.5 -16.5q15 -12 15 -28t-15 -28q-2 -2 -20.5 -17.5t-34 -28t-32.5 -23.5t-24 -11q-8 0 -12 6t-5.5 16t-1.5 19t1 19t1 11h-586q0 -1 1 -11t1 -19t-1.5 -19t-5.5 -16t-12 -6q-7 0 -24 11t-32.5 23.5t-34 28t-20.5 17.5q-15 12 -15 28t15 28q2 1 20.5 16.5t34 28.5t32.5 24
t24 11q8 0 12 -6t5.5 -16.5t1.5 -19.5t-1 -19t-1 -11h586q0 1 -1 11t-1 19t1.5 19.5t5.5 16.5t12 6z" />
    <glyph glyph-name="strikethrough" unicode="&#xe643;" horiz-adv-x="1025" 
d="M1006 384q8 0 13 -5t5 -13v-37q0 -8 -5 -13t-13 -5h-988q-8 0 -13 5t-5 13v37q0 8 5 13t13 5h988zM276 421q-16 20 -29 45q-28 56 -28 108q0 103 77 176q76 73 225 73q28 0 95 -11q38 -7 101 -27q6 -22 12 -68q8 -70 8 -104q0 -11 -3 -26l-7 -2l-48 4l-8 1
q-28 85 -58 117q-51 52 -120 52q-66 0 -104 -34q-39 -33 -39 -83q0 -42 38 -80.5t159 -73.5q40 -11 99 -38q33 -16 55 -29h-425v0zM566 274h235q4 -22 4 -52q0 -64 -24 -121q-13 -32 -40 -60q-22 -20 -63 -46q-45 -28 -87 -38q-46 -12 -116 -12q-65 0 -112 13l-80 23
q-32 9 -41 16q-4 5 -4 13v7q0 62 -1 89q-1 17 0 39l1 21v25l58 2q9 -20 17.5 -41t12.5 -32t7 -15q20 -33 46 -54q24 -21 60 -33q34 -12 75 -12q37 0 80 15q44 15 69 49q27 35 27 74q0 48 -46 90q-20 16 -78 40v0z" />
    <glyph glyph-name="fangda" unicode="&#xe610;" 
d="M554 423h-82v81q0 17 -12 29t-29 12t-28.5 -12t-11.5 -29v-81h-82q-17 0 -29 -12t-12 -29t12 -29t29 -12h82v-82q0 -17 11.5 -29t28.5 -12t29 12t12 29v82h82q17 0 29 12t12 29t-12 29t-29 12zM951 -80l-232 232q38 48 59 107t21 123q0 74 -29 142.5t-78.5 117.5
t-117.5 78.5t-143 29.5v0q-74 0 -142.5 -29.5t-117.5 -78.5t-78.5 -117.5t-29 -143t29.5 -142.5t78 -117.5t117.5 -78.5t142.5 -29q65 0 123.5 21t106.5 59l232 -232q12 -12 29 -12q18 0 29.5 12t11.5 29t-12 29zM695 271q-23 -53 -61 -91.5t-91 -61t-111.5 -22.5
t-111.5 22.5t-91 61t-61 91.5t-23 111t23 111t61 91.5t91 61t111.5 22.5t111.5 -22.5t91 -61t61 -91.5t23 -111t-23 -111z" />
    <glyph glyph-name="suoxiao" unicode="&#xe611;" 
d="M432 793q73 0 140 -28.5t115 -77t76.5 -115t28.5 -139.5q0 -63 -20.5 -120.5t-58.5 -104.5l227 -227q12 -11 12 -28t-11.5 -28.5t-28.5 -11.5t-28 11l-227 228q-47 -38 -104.5 -58.5t-120.5 -20.5q-73 0 -140 28.5t-115 76.5t-76.5 115t-28.5 140t28.5 139.5t76.5 115
t115 77t140 28.5v0zM432 713q-57 0 -109 -22.5t-89.5 -60t-59.5 -89t-22 -108.5t22 -109t59.5 -89.5t89.5 -59.5t109 -22t109 22t89.5 59.5t59.5 89.5t22 109t-22 108.5t-59.5 89t-89.5 60t-109 22.5zM312 473h240q17 0 28.5 -12t11.5 -28.5t-11.5 -28t-28.5 -11.5h-240
q-17 0 -28.5 11.5t-11.5 28t11.5 28.5t28.5 12z" />
    <glyph glyph-name="icon3" unicode="&#xe657;" 
d="M748 330l-209 1v208q0 86 61 147.5t148 61.5t148 -61.5t61 -148t-61 -147.5t-148 -61zM273.5 -145q-86.5 0 -148 61t-61.5 147.5t61.5 148t147.5 61.5q28 0 80 -0.5t91.5 -1t37.5 -0.5v-207q0 -87 -61 -148t-147.5 -61zM64 538.5q0 86.5 61.5 148t148 61.5t147.5 -61.5
t61 -147.5v-208q-146 -1 -209 -1q-86 0 -147.5 61t-61.5 147.5zM957 63.5q0 -86.5 -61 -147.5t-148 -61t-148 61t-61 148v207q146 2 209 2q87 0 148 -61.5t61 -148zM595 63v-2q1 -58 48.5 -101t107.5 -43t102.5 42.5t42.5 101.5q0 61 -43 108t-102 47h-155q0 -123 -1 -155
v0.5v1.5z" />
    <glyph glyph-name="linkurl" unicode="&#xe62a;" 
d="M512 896q-139 0 -257 -68.5t-186.5 -186.5t-68.5 -257t68.5 -257t186.5 -186.5t257 -68.5t257 68.5t186.5 186.5t68.5 257t-68.5 257t-186.5 186.5t-257 68.5zM512 -48q-179 0 -305.5 126.5t-126.5 305.5t126.5 305.5t305.5 126.5t305.5 -126.5t126.5 -305.5
t-126.5 -305.5t-305.5 -126.5zM719 414q-31 31 -75.5 42.5t-88.5 -1.5q-43 -12 -73 -41q-20 -21 -48.5 -24.5t-51.5 11.5q-11 6 -18 13q-24 24 -24 58.5t24.5 59t59 24.5t58.5 -24q7 -7 13 -18q45 13 89 1q-12 45 -42 76q-49 49 -118.5 49t-118.5 -49t-49 -118.5t49 -118.5
q31 -30 76 -42q44 -12 88 1q43 12 73 41q20 21 48.5 24.5t51.5 -11.5q11 -6 18 -13q24 -24 24 -58.5t-24.5 -59t-59 -24.5t-58.5 24q-7 7 -13 18q-45 -13 -89 -1q12 -45 42 -76q49 -49 118.5 -49t118.5 49t49 118.5t-49 118.5z" />
    <glyph glyph-name="duanxin" unicode="&#xe633;" 
d="M512 880q-205 0 -350.5 -145.5t-145.5 -350.5t145.5 -350.5t350.5 -145.5t350.5 145.5t145.5 350.5t-145.5 350.5t-350.5 145.5zM751 269q0 -20 -14 -33.5t-34 -13.5h-131l-179 -95v95h-72q-20 0 -34 13.5t-14 33.5v261q0 19 14 33t34 14h382q20 0 34 -14t14 -33v-261z
" />
    <glyph glyph-name="lianjie" unicode="&#xe634;" 
d="M503 506q-18 -2 -32 -9t-20.5 -16.5t-10.5 -18.5t-4 -15l-1 -6l162 -3q-13 75 -94 68zM304 304q-29 -94 0 -139q11 -16 29.5 -21t46.5 3.5t57 32.5q-50 16 -87 53q-31 30 -46 71zM512 832q-122 0 -225 -60t-163 -163t-60 -225t60 -225t163 -163t225 -60t225 60t163 163
t60 225t-60 225t-163 163t-225 60zM760 535q-5 -18 -12.5 -34t-12.5 -24l-4 -8q1 4 3.5 10.5t7.5 24.5t7.5 34t1.5 34t-7 29q-24 41 -85 25q-24 -6 -60 -33q63 -21 106 -79q20 -27 29.5 -64.5t9.5 -61.5v-25h-312q0 -3 0.5 -8.5t5 -20t11.5 -26t22.5 -20.5t35.5 -9
q22 0 39 5t25.5 12t13.5 14t6 12l1 5h147q-7 -41 -33 -77.5t-66 -58.5q-16 -9 -42.5 -15.5t-63.5 -9t-75 6.5q-32 -35 -71 -50t-70 -7q-18 5 -31.5 19.5t-22.5 39t-4 66t25 91.5q2 4 8 17v2v0q16 34 40.5 67.5t47 57.5t43.5 43t33.5 28.5l12.5 9.5q-54 -21 -105 -66.5
t-73 -82.5q8 66 38 107q37 47 82.5 69t109.5 22q16 -1 34 -3q89 59 151 51q24 -4 38 -17.5t17.5 -32t2.5 -36t-5 -33.5z" />
    <glyph glyph-name="bofang" unicode="&#xe621;" 
d="M512 844q-92 0 -175.5 -36t-144 -96.5t-96 -144t-35.5 -175.5t35.5 -175.5t96 -144t144 -96t175.5 -35.5t175.5 35.5t144 96t96 144t35.5 175.5t-35.5 175.5t-96 144t-144 96.5t-175.5 36zM703 367l-285 -165q-15 -9 -30 -0.5t-15 25.5v330q0 17 15 25.5t30 0.5l285 -165
q15 -9 15 -26t-15 -25z" />
    <glyph glyph-name="a1right" unicode="&#xe612;" 
d="M406 642l257 -257l-257 -257v514z" />
    <glyph glyph-name="ditu" unicode="&#xe623;" 
d="M400 219q2 -4 5 -7q42 -53 84 -88l29 -24l29 24q41 34 84 89q3 3 5 6q129 175 149 297q3 24 3 38q1 117 -81 199q-78 79 -189 79q-110 0 -189 -79q-82 -83 -81 -200q0 -14 3 -37q20 -123 149 -297zM518 650q47 0 80 -33t33 -79.5t-33 -79t-80 -32.5t-80 32.5t-33 79
t33 79.5t80 33zM943 609l-31 -9v0l-89 -26q-1 -33 -4 -52l93 31v-493l-263 -78v0l-314 91v0v0v0v0l-225 -75v487l93 23q-3 19 -3 42v2l-135 -34v-23v-557l45 15l225 75l314 -91l307 91v563v22z" />
    <glyph glyph-name="tubiao11" unicode="&#xe649;" 
d="M923 576h-822v246h48v-198h726v198h48v-246zM923 -54h-48v198h-726v-198h-48v246h822v-246zM102 408h820v-48h-820v48z" />
    <glyph glyph-name="a3left" unicode="&#xe613;" 
d="M271 408l-1 -1.5l-1 -1.5q-7 -15 -4.5 -32.5t15.5 -28.5l391 -370q16 -16 38 -15t37 17t14.5 38t-16.5 37l-351 332l350 337q15 15 15.5 37t-14.5 38q-16 16 -38 16t-37 -15l-387 -373l-1.5 -1.5l-1 -1l-1.5 -1.5q-2 -2 -7 -11v0zM271 408z" />
    <glyph glyph-name="jinru" unicode="&#xe644;" 
d="M925 421h-396l143 143q11 11 11 25.5t-10.5 25.5t-25.5 11t-26 -11l-202 -204q-11 -11 -11 -26t11 -26l202 -204q11 -10 26 -10t25.5 10.5t10.5 25.5t-11 25l-143 144h396q15 0 25 10t10 24v2q0 14 -10 24.5t-25 10.5zM133 74v620q0 28 20.5 48.5t48.5 20.5h482v69h-482
q-57 0 -97.5 -40.5t-40.5 -97.5v-620q0 -57 40.5 -97.5t97.5 -40.5h482v69h-482q-28 0 -48.5 20.5t-20.5 48.5z" />
    <glyph glyph-name="shuzishurukuang" unicode="&#xe64a;" 
d="M190 171v309q-49 -44 -126 -75v61q100 43 140 114h53v-409h-67zM420 226h204v-53h-287v39q44 77 126 138q100 71 93 112q-2 67 -73 67q-61 0 -79 -75l-63 16q28 114 154 114q124 -4 131 -114q10 -73 -96 -140q-79 -53 -110 -104zM674 271l68 14q14 -71 81 -71q75 2 77 73
q0 67 -95 67h-37v51h30q88 2 90 65q0 61 -65 61q-65 -2 -75 -69l-67 16q28 104 146 106q124 -4 130 -106q0 -75 -81 -95v-2q89 -15 95 -98q-6 -112 -150 -116q-124 -4 -147 104z" />
    <glyph glyph-name="quanjing" unicode="&#xe62b;" 
d="M819 171q-61 -60 -140 -93t-167 -33t-167 33t-140 93l-72 -177l-1 -2q-10 -32 10 -59q15 -21 45.5 -34t65.5 -13h518q33 0 65.5 13t48.5 37q19 28 6 58zM236 218v0q6 -7 13 -13v0q7 -6 14 -13v0q7 -5 15 -12v0q8 -6 15 -11v0v0q8 -6 15 -10h0.5t0.5 -1q8 -4 15 -8
q1 -1 2 -1q7 -4 15 -8q1 -1 2 -1q5 -3 14 -7q1 0 3 -1l14 -6q1 0 2 -0.5t2 -0.5q6 -3 14 -5q0 -1 1.5 -1.5t2.5 -0.5q6 -2 14 -4q1 0 2.5 -0.5t2.5 -0.5q5 -2 13 -3q5 -1 5 -2l14 -2q5 -1 6 -1q5 -1 13 -2q1 0 3 -0.5t3 -0.5q4 0 14 -1h6q11 -1 20 -1q8 0 20 1h6q10 1 14 1
q1 0 3 0.5t3 0.5q9 1 13 2q1 0 3.5 0.5l2.5 0.5q8 1 14 2q0 1 2 1t3 1q7 1 13 3q1 0 2.5 0.5t2.5 0.5q9 2 14 4q1 0 2.5 0.5t1.5 1.5q8 2 14 5q1 0 2 0.5t2 0.5q8 3 14 6q1 0 2 0.5l1 0.5q7 3 15 7q1 1 2 1q8 4 14 8q1 0 2 1q6 3 15 8l1 1q7 5 15 10v0q8 5 15 11v0
q70 54 110 133.5t40 170.5q0 104 -51.5 192.5t-140 140t-192.5 51.5t-192.5 -51.5t-140 -140t-51.5 -192.5q0 -76 28.5 -144.5t79.5 -121.5v0zM197 484q0 131 92.5 223t222.5 92t222.5 -92t92.5 -223q0 -67 -27 -127.5t-75 -104.5q-10 -9 -21 -18h-1l-1 -1q-10 -7 -21 -15
q-2 -1 -3 -1q-11 -7 -22 -13q-2 -1 -3 -1q-11 -6 -23 -11q-1 0 -2 -0.5t-2 -0.5q-12 -5 -24 -9h-2t-1 -1l-26 -6h-3q-13 -3 -27 -4h-2q-15 -2 -29 -2t-29 2h-2q-13 1 -27 4h-3q-12 3 -26 6l-1 0.5t-2 0.5q-12 4 -24 9q-1 0 -4 1q-12 5 -23 11q-1 0 -3 1q-11 6 -22 13
q-1 0 -1.5 0.5t-1.5 0.5q-12 8 -21 15q-1 0 -1 0.5t-1 0.5q-11 9 -21 18v0q-48 44 -75 104.5t-27 127.5zM512 255q59 0 101 42t42 101.5t-42 101.5t-101 42t-101 -42t-42 -101.5t42 -101.5t101 -42zM512 501q42 0 72 -30t30 -72.5t-30 -72t-72 -29.5t-72 29.5t-30 72
t30 72.5t72 30zM458 385q0 -23 16 -38.5t38 -15.5t38 15.5t16 38t-16 38.5t-38 16t-38 -16t-16 -38v0z" />
    <glyph glyph-name="icoreset" unicode="&#xe650;" 
d="M870 513q-2 7 -9 10.5t-14 1t-10 -9t-1 -14.5q32 -94 9.5 -190t-91.5 -166q-67 -67 -157 -90.5t-179.5 0t-155.5 90.5q-3 2 -6 6.5t-4 5.5h125q8 0 13 5t5 12.5t-5 13t-13 5.5h-156q-22 1 -23 0h-10v-189q0 -8 5.5 -13t13 -5t12.5 5t5 13v129q1 -1 5.5 -6t6.5 -8
q55 -55 125.5 -83.5t146 -28.5t146 28.5t125.5 83.5q77 78 101.5 183.5t-10.5 210.5zM262 637q50 50 115 76t131 26t131 -26t115 -76q2 -2 5 -6.5t4 -5.5h-125q-7 0 -12.5 -5t-5.5 -12.5t5.5 -13t12.5 -5.5h157h22h10v189q0 8 -5.5 13t-12.5 5t-12.5 -5t-5.5 -13v-129
q-10 12 -12 14q-74 73 -172.5 99.5t-197.5 0t-173 -99.5q-77 -77 -101.5 -183t10.5 -211q4 -12 17 -12q3 0 6 1q7 2 10.5 9t0.5 14q-31 95 -9 190.5t92 165.5z" />
    <glyph glyph-name="fabu" unicode="&#xe614;" 
d="M790 125l-331 100l295 343l-380 -318l-310 92l896 427zM449 -3v178l109 -31z" />
    <glyph glyph-name="loading" unicode="&#xe603;" 
d="M326 189h373q8 0 8 8q-3 62 -41 111t-96 67q-6 2 -6 7.5t6 6.5q58 18 96 67t40 111q1 8 -7 8h-373q-8 0 -8 -8q3 -62 41 -111t96 -67q5 -1 5 -6.5t-5 -7.5q-58 -18 -96 -67t-41 -111q0 -8 8 -8zM65 382q0 -90 35.5 -172.5t95 -142.5t142 -95t173 -35t173 35t142.5 95
t95 142.5t35 172.5q0 84 -30 161.5t-86 138.5q-8 9 -19.5 9.5t-20.5 -7.5t-9.5 -19.5t7.5 -20.5q101 -111 101 -262q0 -105 -52 -194.5t-141.5 -141.5t-195 -52t-195 52t-141.5 141.5t-52 195t52 195t141.5 141.5t195.5 52q12 0 20 8.5t8 20t-8 20t-20 8.5
q-91 0 -173.5 -35.5t-142 -95t-95 -142t-35.5 -173.5v0z" />
    <glyph glyph-name="zanting" unicode="&#xe669;" 
d="M512 896q-138 0 -256 -69t-187 -187t-69 -256t69 -256t187 -187t256 -69t256 69t187 187t69 256t-69 256t-187 187t-256 69zM454 173q0 -14 -12.5 -23t-32 -9t-32 9t-12.5 23v422q0 14 12.5 23t32 9t32 -9t12.5 -23v-422zM666 173q0 -14 -13 -23t-32.5 -9t-32 9t-12.5 23
v422q0 14 12.5 23t32 9t32.5 -9t13 -23v-422z" />
    <glyph glyph-name="tuichu" unicode="&#xe615;" 
d="M745 -45zM104 -45zM953 849zM962 377v0v0v0zM512 -74v0q-111 0 -205 55t-148.5 149t-54.5 205q0 126 70 228.5t183 149.5v-1q7 3 14 3q18 0 30 -12.5t12 -29.5q0 -14 -7.5 -25t-20.5 -15v0q-88 -38 -142.5 -118.5t-54.5 -179.5q0 -88 43.5 -163t118 -118t162.5 -43
t162.5 43.5t118 118t43.5 162.5q0 99 -54.5 179.5t-142.5 118.5v0q-13 4 -21 15t-8 25q0 17 12.5 29.5t30.5 12.5q7 0 14 -3v0q113 -46 183 -148.5t70 -228.5q0 -111 -54.5 -205t-148.5 -149t-205 -55zM512 363q-18 0 -30 12.5t-12 29.5v250v85v45q0 18 12 30t29.5 12
t30 -12t12.5 -30v-127v-84v-169q0 -17 -12.5 -29.5t-29.5 -12.5v0z" />
    <glyph glyph-name="shangpin-copy" unicode="&#xe62c;" 
d="M864 832h-703q-38 0 -64.5 -26.5t-26.5 -64.5v-703q0 -38 26.5 -64.5t64.5 -26.5h703q38 0 64.5 26.5t26.5 64.5v704q0 37 -26.5 63.5t-64.5 26.5v0zM784 581l-2 -1v-2q-15 -100 -92 -167t-177.5 -67t-178 67t-91.5 167v2l-2 1q-22 12 -22 36q0 17 12.5 29.5t30 12.5
t30 -12.5t12.5 -29.5q0 -19 -16 -32l-2 -2l1 -3q13 -83 77 -137.5t148.5 -54.5t148.5 54.5t77 137.5v3l-2 1q-15 14 -15 33q0 17 12.5 29.5t30 12.5t29.5 -12.5t12 -29.5q0 -24 -21 -36v0z" />
    <glyph glyph-name="fuzhi" unicode="&#xe655;" 
d="M250 89h393v459h-393v-459zM316 679v-66h392v-425h66v491h-458z" />
    <glyph glyph-name="fankui" unicode="&#xe604;" 
d="M300 461q-16 0 -27.5 11.5t-11.5 27t11.5 27t27.5 11.5h251q16 0 27 -11.5t11 -27t-11 -27t-27 -11.5h-251zM300 306q-16 0 -27.5 11.5t-11.5 27.5t11.5 27.5t27.5 11.5h463q16 0 27.5 -11.5t11.5 -27.5t-11.5 -27.5t-27.5 -11.5h-463zM68 413q0 -137 96 -239v-177
q0 -11 4.5 -20t12.5 -14.5t24 -2t37 17.5q29 19 123 78q71 -20 147 -20q122 0 223.5 48t161 135t59.5 194t-59.5 198.5t-161.5 144t-223 52.5t-223 -52.5t-161.5 -144t-59.5 -198.5v0z" />
    <glyph glyph-name="icon10" unicode="&#xe66f;" 
d="M2 768h64v-64h-64v64zM66 704h64v-64h-64v64zM130 640h64v-64h-64v64zM194 704h64v-64h-64v64zM258 768h64v-64h-64v64zM322 832h64v-64h-64v64zM2 448h64v-64h-64v64zM66 384h64v-64h-64v64zM130 320h64v-64h-64v64zM194 384h64v-64h-64v64zM258 448h64v-64h-64v64z
M322 512h64v-64h-64v64zM450 706h574v-69h-574v69zM450 68h574v-69h-574v69zM450 389h574v-69h-574v69zM66 128h192v-192h-192v192z" />
    <glyph glyph-name="jiantou-copy-copy-copy" unicode="&#xe616;" 
d="M511 830q-91 0 -174 -35.5t-143 -95.5t-95.5 -143t-35.5 -174t35.5 -174t95.5 -143t143 -95.5t174 -35.5t174 35.5t143 95.5t95.5 143t35.5 174t-35.5 174t-95.5 143t-143 95.5t-174 35.5zM510.5 -10q-106.5 0 -196.5 52.5t-142.5 142.5t-52.5 197t52.5 197t142.5 142.5
t196.5 52.5t197 -52.5t143 -142.5t52.5 -197t-52.5 -197t-143 -142.5t-197 -52.5zM638 621q-8 8 -20 8t-20 -8l-214 -214q-10 -10 -7 -25q-3 -15 7 -25l214 -214q8 -8 20 -8t20 8t8 19.5t-8 19.5l-200 200l200 199q8 9 8 20.5t-8 19.5z" />
    <glyph glyph-name="bangzhu" unicode="&#xe605;" 
d="M512 -47q-117 0 -216 58t-157 157t-58 216t58 216t157 157t216 58t216 -58t157 -157t58 -216t-58 -216t-157 -157t-216 -58zM462 89q18 -18 44 -18t46 17q18 18 18 45t-18 44q-17 17 -46 17q-27 0 -44 -17q-18 -17 -18 -44q0 -26 18 -44v0zM656 651.5q-51 45.5 -135 45.5
q-95 0 -149 -55q-55 -54 -55 -148h91q0 58 23 89q26 36 85 36q46 0 72 -26q25 -27 25 -70q0 -33 -23 -63l-15 -17q-80 -71 -98 -106q-16 -33 -16 -82v-15h92v15q0 33 14 58q11 22 35 44q60 51 73 67q32 42 32 105q0 77 -51 122.5z" />
    <glyph glyph-name="icoinit" unicode="&#xe6ea;" 
d="M444 784h-50v-50h50v50zM519 784h-50v-50h50v50zM369 784h-51v-50h51v50zM293 784h-50v-50h50v50zM719 684h-50v-50h50v50zM193 684h-51v-50h51v50zM595 784h-50v-50h50v50zM669 709h50v75h-98v-50h48v-25zM142 709h51v25h25v50h-76v-75zM193 306h-51v-96h76v51h-25v45z
M193 608h-51v-50h51v50zM243 210h50v51h-50v-51zM193 533h-51v-50h51v50zM193 382h-51v-50h51v50zM193 458h-51v-51h51v51zM948 381q-9 6 -19 4.5t-16 -9.5l-26 -34q-10 98 -81 168q-81 82 -196.5 82t-197 -81.5t-81.5 -197t81.5 -197t197 -81.5t196.5 81q8 8 8 18
t-7.5 17.5t-17.5 7.5t-18 -7q-67 -67 -161.5 -67t-161.5 66.5t-67 161.5t67 162t161.5 67t161.5 -67q59 -59 66 -141l-32 33q-7 8 -17.5 8t-17.5 -7t-7.5 -17.5t6.5 -17.5l77 -80q7 -7 18 -7h1q12 1 19 10l68 90q7 8 5.5 18.5t-9.5 16.5v0zM948 381z" />
    <glyph glyph-name="a2right" unicode="&#xe617;" 
d="M565 358l27 26v0v0l-27 26v0l-423 424l-26 -26l423 -424l-424 -423l27 -26zM433 807l423 -423l-424 -424l27 -26l450 450l-27 26v0l-423 423zM433 807z" />
    <glyph glyph-name="zitiyanse" unicode="&#xe647;" 
d="M67 97v-135h584l135 135h-719zM741 -38h224v225zM790 119h-113l-92 216h-283l-91 -216h-116l297 686h106zM548 430l-104 232l-105 -232h209z" />
    <glyph glyph-name="danxuan" unicode="&#xe64b;" 
d="M271 670h753v-30h-753v30zM271 279h753v-30h-753v30zM271 -98h753v-30h-753v30zM0 775q0 50 35.5 85.5t85 35.5t85 -35.5t35.5 -85.5t-35.5 -85.5t-85 -35.5t-85 35.5t-35.5 85.5zM30 -7.5q0 37.5 26.5 64t64 26.5t64 -26.5t26.5 -64t-26.5 -64t-64 -26.5t-64 26.5
t-26.5 64zM0 -7.5q0 -49.5 35.5 -85t85 -35.5t85 35.5t35.5 85t-35.5 85t-85 35.5t-85 -35.5t-35.5 -85zM30 368.5q0 37.5 26.5 64t64 26.5t64 -26.5t26.5 -63.5t-26.5 -63.5t-64 -26.5t-64 26t-26.5 63.5zM0 369q0 -50 35.5 -85t85 -35t85 35t35.5 85t-35.5 85t-85 35
t-85 -35t-35.5 -85z" />
    <glyph glyph-name="danxingwenben" unicode="&#xe66d;" 
d="M955 634h-1v5h-837h-49v0v-50v0v-406v0v-50h886v25h1v476zM117 589h789v-406h-789v406zM181 516h49v-266h-49v266z" />
    <glyph glyph-name="duoxingwenben" unicode="&#xe66e;" 
d="M954 698h-838h-49v0v-50v0v-405v-123v-50h887v628zM116 648h789v-528h-789v528zM173 595h49v-266h-49v266zM764 170h91v93z" />
    <glyph glyph-name="yinle" unicode="&#xe606;" 
d="M512 776q30 0 45 -2q7 -2 28.5 10t41.5 28q8 7 17 16.5t14 15t7 5.5q5 -1 6 -26t6 -53t20 -35q113 -53 182 -159.5t69 -235.5q0 -89 -34.5 -169.5t-93 -139t-139 -93t-169.5 -34.5t-169.5 34.5t-139 93t-93 139t-34.5 169.5t34.5 169.5t93 139t139 93t169.5 34.5v0z
M649 806q-43 -47 -99 -63q-12 -4 -42.5 -9.5t-52.5 -11.5t-46.5 -16t-36.5 -28t-10 -43q1 -14 20 -46t50.5 -75t60 -80t63 -80.5t44.5 -56.5q-73 2 -124.5 -8.5t-93.5 -48.5q-36 -33 -53 -78.5t-4.5 -93t55.5 -78.5q39 -27 88.5 -29.5t94 17t81.5 51t54 75.5t6 88
q-4 17 -12.5 33t-23.5 36.5t-20 29.5q-46 73 -144 233q-17 31 -20 67q35 9 58.5 16.5t48 19.5t38 27t23 36.5t8.5 50t-11 65.5z" />
    <glyph glyph-name="chexiao1" unicode="&#xe719;" 
d="M491 541q-83 0 -162.5 -45.5t-137 -116.5t-93 -161t-36.5 -178q0 -9 4.5 -13.5t11.5 -1t14 14.5q112 201 351 201h55v-157q0 -37 22 -53t51 6l361 291q29 24 29 57.5t-29 57.5l-364 294q-29 23 -49.5 9t-20.5 -56v-149h-7v0z" />
    <glyph glyph-name="caidan" unicode="&#xe62d;" 
d="M97 612h89q13 0 22.5 9.5t9.5 22.5v64q0 14 -9.5 23.5t-22.5 9.5h-89q-13 0 -22.5 -9.5t-9.5 -23.5v-64q0 -13 9.5 -22.5t22.5 -9.5zM186 455h-89q-13 0 -22.5 -9.5t-9.5 -22.5v-64q0 -13 9.5 -22.5t22.5 -9.5h89q13 0 22.5 9.5t9.5 22.5v64q0 13 -9.5 22.5t-22.5 9.5z
M186 167h-89q-13 0 -22.5 -9.5t-9.5 -23.5v-67q0 -14 9.5 -23.5t22.5 -9.5h89q13 0 22.5 9.5t9.5 23.5v67q0 13 -9.5 23t-22.5 10zM349 612h578q13 0 22.5 9.5t9.5 22.5v64q0 14 -9.5 23.5t-22.5 9.5h-578q-13 0 -22.5 -9.5t-9.5 -23.5v-64q0 -13 9.5 -22.5t22.5 -9.5z
M927 455h-578q-13 0 -22.5 -9.5t-9.5 -22.5v-64q0 -13 9.5 -22.5t22.5 -9.5h578q13 0 22.5 9.5t9.5 22.5v64q0 13 -9.5 22.5t-22.5 9.5zM927 167h-578q-13 0 -22.5 -9.5t-9.5 -23.5v-67q0 -14 9.5 -23.5t22.5 -9.5h578q13 0 22.5 9.5t9.5 23.5v67q0 14 -9.5 23.5t-22.5 9.5z
" />
    <glyph glyph-name="coding" unicode="&#xe79b;" 
d="M364.5 440.5q-3.5 5.5 -10 7.5t-12.5 -2l-190 -113q-8 -5 -8 -14.5t8 -13.5l190 -114q4 -2 8 -2q10 0 15 8q3 6 1.5 12.5t-7.5 9.5l-167 100l167 99q6 3 7.5 10t-2 12.5zM659 197q5 -8 15 -8q4 0 8 2l190 114q8 4 8 13.5t-8 14.5l-190 113q-6 4 -12.5 2t-10 -7.5
t-2 -12.5t7.5 -10l167 -99l-167 -100q-6 -3 -7.5 -9.5t1.5 -12.5zM575 441l-153 -227q-3 -5 -2 -12t7 -10q4 -3 9 -3q9 0 13 7l153 227q3 6 2 12.5t-6.5 10t-12.5 2.5t-10 -7zM1008 847h-992q-6 0 -11 -5t-5 -11v-894q0 -6 5 -11t11 -5h992q6 0 11 5t5 11v175q0 6 -5 11
t-11.5 5t-11.5 -5t-5 -11v-158h-958v730h958v-507q0 -7 5 -11.5t11.5 -4.5t11.5 4.5t5 11.5v654q0 6 -5 11t-11 5zM33 814h604v-98h-604v98zM670 716v98h321v-98h-321zM831 783q-7 0 -12 -5.5t-5 -12.5t5 -12t12 -5t12.5 5t5.5 12t-5.5 12.5t-12.5 5.5zM742 783
q-7 0 -12.5 -5.5t-5.5 -12.5t5.5 -12t12.5 -5t12 5t5 12t-5 12.5t-12 5.5zM920.5 783q-7.5 0 -12.5 -5.5t-5 -12.5t5 -12t12.5 -5t12.5 5t5 12t-5 12.5t-12.5 5.5z" />
    <glyph glyph-name="chexiao2" unicode="&#xe654;" 
d="M532 530h-7v143q0 40 -20 54t-48 -9l-352 -283q-28 -22 -28 -54.5t28 -55.5l349 -280q29 -21 50 -5.5t21 50.5v151h53q232 0 341 -193q6 -11 13 -14t11 1t4 13q-1 84 -35.5 171t-90 155.5t-132.5 112t-157 43.5z" />
    <glyph glyph-name="kejian" unicode="&#xe65b;" 
d="M512 704q-60 0 -116 -20.5t-112 -63.5t-106.5 -95.5t-113.5 -129.5q5 -6 14 -17q36 -44 54.5 -66t53 -59.5t57 -56.5t57 -44t65 -37t68.5 -21t79 -9q40 0 80 11t72.5 25.5t69 42t61 48.5t58 56.5t50 55t46.5 55.5q7 8 10 12q-36 49 -67.5 88t-77.5 83t-90 73.5t-100 49
t-112 19.5v0v0zM512 192q-79 0 -135.5 56.5t-56.5 135.5t56.5 135.5t135.5 56.5t135.5 -56.5t56.5 -135.5t-56.5 -135.5t-135.5 -56.5v0v0zM512 461q0 28 19 50q-8 1 -19 1q-53 0 -90.5 -37.5t-37.5 -90.5t37.5 -90.5t90.5 -37.5t90.5 37.5t37.5 90.5q0 5 -1 17
q-22 -17 -49 -17q-32 0 -55 22.5t-23 54.5v0v0z" />
    <glyph glyph-name="xiaoguo" unicode="&#xe624;" 
d="M279 859l53 -200l168 -61l-167 -63l-51 -200l-52 200l-169 60l168 63zM630 801l66 -133l127 -18l-109 -68l-6 -148l-66 133l-126 18l108 68zM299 324l29 -84l75 -20l-70 -33l-15 -88l-29 84l-75 20l70 33zM416 373l99 99q16 16 39 16t39 -16l150 -150l-177 -176l-150 149
q-16 16 -16 39t16 39v0zM777 288l-177 -177l152 -152q16 -16 39 -16t39 16l99 99q16 16 16 39t-16 39l-152 152v0zM436 327l126 -125l125 125l-125 125z" />
    <glyph glyph-name="biaodan" unicode="&#xe625;" 
d="M800 666q-3 1 -7 0.5t-10.5 -4.5t-5.5 -13l67 -195l25 95l109 -140l46 56l-134 108l95 25zM46 412h711q7 0 11.5 17t4.5 39q0 13 -4 24.5t-9 16.5l-4 5h-639q-6 0 -10.5 4.5t-4.5 10.5v169q0 6 4.5 10.5t10.5 4.5h770q7 0 11 -4.5t4 -10.5v-3q0 -11 58 -10h10
q21 0 28 3.5t7 14.5v65q0 19 -13.5 32.5t-31.5 13.5h-914q-19 0 -32.5 -13.5t-13.5 -32.5v-310q0 -19 13.5 -32.5t32.5 -13.5zM959 330h-913q-19 0 -32.5 -13.5t-13.5 -32.5v-284q0 -19 13.5 -32.5t32.5 -13.5h913q19 0 32.5 13.5t13.5 32.5v284q0 19 -13.5 32.5t-32.5 13.5
zM902 71q0 -6 -4 -10.5t-11 -4.5h-770q-6 0 -10.5 4.5t-4.5 10.5v142q0 6 4.5 10.5t10.5 4.5h770q7 0 11 -4.5t4 -10.5v-142v0z" />
    <glyph glyph-name="name" unicode="&#xe665;" horiz-adv-x="1045" 
d="M887 481h-214l107 -214zM940 588h-856q-21 0 -37.5 -15t-16.5 -38v-322q0 -21 15 -37t39 -16h856q21 0 37.5 15t16.5 38v322q0 21 -15.5 37t-38.5 16zM565 213h-481v322h481v-322zM940 213h-321v322h321v-322z" />
    <glyph glyph-name="zhiwen06" unicode="&#xe62e;" 
d="M861 382q-3 -27 -1 -50t0.5 -55t-8.5 -57q-27 -94 -109 -151t-175 -45q-104 12 -172 87t-69 178t0 190q1 45 30 74t73.5 29.5t75 -28t32.5 -73.5q1 -12 0.5 -88t-0.5 -89q1 -32 16.5 -50.5t40.5 -18.5q24 1 38.5 19t15.5 49q1 128 -1 186q-1 83 -64 144t-150 64
q-84 2 -149.5 -59t-67.5 -145q0 -19 -2 -68t-2.5 -75.5t2.5 -66t10 -72.5q44 -205 253 -280q1 -1 4 -1.5t4 -0.5q11 -4 16.5 -7t10 -10t1.5 -17q-4 -18 -18.5 -19.5t-26.5 5.5q-219 71 -282 277q-51 166 -11 389q18 97 102.5 153t186.5 43q100 -13 166.5 -86.5t67.5 -173.5
q1 -101 0 -190q0 -47 -30.5 -77.5t-75.5 -30.5q-42 0 -73 30.5t-32 74.5q-1 19 -0.5 89t0.5 88q-1 31 -15.5 48.5t-40 17.5t-40 -17t-14.5 -48q-1 -129 0 -186q2 -85 64 -146t148 -62q87 -1 152 58t67 143q0 18 2 68.5t2.5 75.5t-2 65t-9.5 73q-44 205 -248 280q-13 4 -16 5
q-34 7 -26 35q8 24 43 13q143 -46 225 -161q87 -121 81 -269v-78zM782 380q-1 -9 -0.5 -62t-5.5 -66q-15 -69 -68.5 -109t-125.5 -37q-66 3 -115 48.5t-57 112.5q-4 30 -4.5 63t0.5 76t1 63q0 33 24 34q26 1 26 -36q0 -17 -0.5 -82t0.5 -82q1 -66 39.5 -107t99.5 -40
q59 1 97.5 42t37.5 104q0 21 1.5 71t0 86.5t-7.5 69.5q-10 59 -40.5 107.5t-73.5 80t-94.5 47.5t-108.5 11.5t-110 -31.5l-1.5 -1l-1.5 -1q-1 0 -4 -2q-8 -4 -12.5 -6t-12 -3t-12.5 2.5t-9 12.5q-3 6 -3 11.5t2 9t7 8t8.5 6.5l10.5 6q93 50 203.5 36.5t189.5 -83.5
q115 -104 119 -265v-95zM244 388q1 10 0.5 62t5.5 65q14 68 67 110t124 40q66 -2 116.5 -48.5t58.5 -114.5q4 -30 4.5 -63t-0.5 -75.5t-1 -63.5q0 -32 -25 -32q-15 0 -19.5 8t-4.5 24q0 3 0.5 86t-1.5 87q-1 53 -30 90t-77 49q-42 10 -84 -8.5t-63 -56.5q-16 -28 -17 -48
q0 -8 -2.5 -53.5t-3 -62t-0.5 -51t3.5 -61t9.5 -53.5q13 -53 43 -97t72.5 -72.5t91.5 -43.5t102.5 -11t103.5 27q17 7 22 11q27 18 40 -5q14 -23 -17 -40q-57 -32 -115 -40q-109 -14 -201.5 28.5t-147 128.5t-55.5 196v88z" />
    <glyph glyph-name="icons01" unicode="&#xe698;" 
d="M640 32h-448q-40 0 -68 28t-28 68v640q0 40 28 68t68 28h640q40 0 68 -28t28 -68v-448q0 -13 -9.5 -22.5t-22.5 -9.5t-22.5 9.5t-9.5 22.5v448q0 13 -9.5 22.5t-22.5 9.5h-640q-13 0 -22.5 -9.5t-9.5 -22.5v-640q0 -13 9.5 -22.5t22.5 -9.5h448q13 0 22.5 -9.5t9.5 -22.5
t-9.5 -22.5t-22.5 -9.5zM128 224q-13 0 -22.5 9.5t-9.5 22.5t9 23l160 159q22 22 52.5 27t58.5 -9l173 -87q21 -10 37 6l287 288q10 9 23 9t22.5 -9.5t9.5 -22.5t-9 -23l-288 -287q-22 -22 -52.5 -27t-58.5 9l-173 87q-21 10 -37 -6l-159 -160q-10 -9 -23 -9zM384 544
q-40 0 -68 28t-28 68t28 68t68 28t68 -28t28 -68t-28 -68t-68 -28zM384 672q-13 0 -22.5 -9.5t-9.5 -22.5t9.5 -22.5t22.5 -9.5t22.5 9.5t9.5 22.5t-9.5 22.5t-22.5 9.5zM768 32q-13 0 -22.5 9.5t-9.5 22.5v192q0 13 9.5 22.5t22.5 9.5t22.5 -9.5t9.5 -22.5v-192
q0 -13 -9.5 -22.5t-22.5 -9.5zM896 160q-13 0 -22 9l-106 99l-106 -99q-10 -9 -23 -9t-22 10t-9 23t10 22l112 106q15 17 38 17t38 -17l112 -106q10 -9 10 -22t-9 -23t-23 -10z" />
    <glyph glyph-name="peizhi" unicode="&#xe658;" 
d="M908 461h-75q-13 55 -28 84l54 54q14 15 14 36t-15 36l-61 62q-15 15 -36.5 15t-36.5 -15l-53 -53q-30 14 -85 28v74q0 21 -15 36t-36 15h-50q-21 0 -36 -15t-15 -36v-74q-55 -14 -85 -28l-53 53q-15 15 -36 15t-37 -15l-61 -62q-15 -15 -15 -36t15 -36l53 -54
q-14 -29 -28 -84h-75q-21 0 -36 -15t-15 -36v-51q0 -21 15 -36t36 -15h75q14 -55 28 -84l-53 -54q-15 -15 -15 -36t15 -36l61 -62q16 -15 37 -15t36 15l53 53q30 -14 85 -28v-74q0 -21 15 -36t36 -15h50q21 0 36 15t15 36v74q55 14 85 28l53 -53q15 -15 36.5 -15t36.5 15
l61 62q15 15 15 36t-14 36l-54 54q14 29 28 84h75q21 0 36 15t15 36v51q0 21 -15 36t-36 15zM918 359q0 -4 -3 -7t-7 -3h-107l-3 -16q-19 -75 -35 -103l-9 -13l76 -76q7 -7 -1 -14l-61 -62q-8 -7 -15 0l-75 75l-14 -8q-28 -17 -103 -35l-16 -4v-106q0 -4 -3 -7t-7 -3h-50
q-10 0 -10 10v106l-16 4q-75 18 -103 35l-14 8l-75 -75q-7 -7 -15 0l-61 62q-3 3 -3 7t2 7l76 76l-9 13q-16 28 -35 103l-3 16h-107q-4 0 -7 3t-3 7v51q0 10 10 10h107l3 16q19 75 35 102l9 14l-76 76q-7 7 1 14l61 62q8 7 15 0l75 -75l14 8q28 17 103 35l16 4v106q0 4 3 7
t7 3h50q10 0 10 -10v-106l16 -4q75 -18 103 -35l14 -8l75 75q7 7 15 0l61 -62q8 -7 1 -14l-76 -76l9 -14q16 -27 35 -102l3 -16h107q4 0 7 -3t3 -7v-51zM512 558q-73 0 -124 -51.5t-51 -124t51 -124t124 -51.5t124 51.5t51 124t-51 124t-124 51.5zM607.5 287.5
q-39.5 -39.5 -95.5 -39.5t-95.5 39.5t-39.5 95t39.5 95t95.5 39.5t95.5 -39.5t39.5 -95t-39.5 -95z" />
    <glyph glyph-name="wangge" unicode="&#xe619;" 
d="M702 201h191v-183h-191v183v0zM415 201h191v-183h-191v183v0zM129 201h191v-183h-191v183v0zM702 474h191v-182h-191v182v0zM415 474h191v-182h-191v182v0zM129 474h191v-182h-191v182v0zM702 748h191v-183h-191v183v0zM415 748h191v-183h-191v183v0zM129 748h191v-183
h-191v183v0z" />
    <glyph glyph-name="yanjing" unicode="&#xe607;" 
d="M512 637q-79 0 -164.5 -31.5t-146 -74t-100 -84t-39.5 -63.5v0q0 -22 39.5 -63.5t100 -84t146 -74t164.5 -31.5t164.5 31.5t146 74t100 84t39.5 63.5v0q0 22 -39.5 63.5t-100 84t-146 74t-164.5 31.5zM512 215q-72 0 -120.5 48.5t-48.5 120.5t48.5 120.5t120.5 48.5
t120.5 -48.5t48.5 -120.5t-48.5 -120.5t-120.5 -48.5zM456 384q0 -25 15.5 -40.5t40.5 -15.5t40.5 15.5t15.5 40.5t-15.5 40.5t-40.5 15.5t-40.5 -15.5t-15.5 -40.5z" />
    <glyph glyph-name="quanjing360" unicode="&#xe62f;" 
d="M225 349q-25 0 -42.5 17.5t-17.5 42.5q0 15 -10.5 25t-24.5 10t-24.5 -10t-10.5 -25q0 -53 38 -91t91.5 -38t91.5 38t38 91q0 56 -41 95q41 38 41 95q0 53 -38 91t-91.5 38t-91.5 -38t-38 -91q0 -15 10.5 -25t24.5 -10t24.5 10t10.5 25q0 24 17.5 41.5t42 17.5t42 -17.5
t17.5 -42t-17.5 -42t-41.5 -17.5q-15 0 -25 -10.5t-10 -24.5t10 -24.5t25 -10.5q24 0 41.5 -17.5t18 -42.5t-17.5 -42.5t-42 -17.5v0zM641 427q0 53 -38 91t-91 38q-32 0 -60 -15v58q0 24 17.5 42t42.5 18t42.5 -18t17.5 -42q0 -15 10 -25t24.5 -10t24.5 10t10 25
q0 53 -38 91t-91 38t-91 -38t-38 -91v-190q0 -53 38 -91t91 -38t91 38t38 91v18zM572 409q0 -25 -17.5 -42.5t-42.5 -17.5t-42.5 17.5t-17.5 42.5v18q0 24 17.5 42t42.5 18t42.5 -18t17.5 -42v-18zM799 280q54 0 92 38t38 91v190q0 53 -38 91t-91.5 38t-91.5 -38t-38 -91
v-190q0 -53 38 -91t91 -38v0zM739 599q0 25 18 42.5t42.5 17.5t42 -17.5t17.5 -42.5v-190q0 -25 -17.5 -42.5t-42 -17.5t-42.5 17.5t-18 42.5v190zM420 136q-5 5 -12 5t-12 -5t-5 -12.5t5 -12.5l73 -74q-169 7 -287 57q-58 24 -90 54.5t-32 61.5t30 60q5 5 5 12.5t-5 12.5
t-12.5 5t-12.5 -5q-39 -40 -39 -85q0 -43 36.5 -81t105.5 -67q124 -53 303 -60l-76 -75q-5 -5 -5 -12t5 -12t13 -5q7 0 12 5l104 104q5 5 5 12t-5 12zM934 295q-5 -5 -5 -12.5t5 -12.5q29 -29 29 -60q0 -57 -93.5 -104t-238.5 -63q-7 -1 -11.5 -6.5t-3.5 -12.5t6 -11.5
t11 -4.5h2q163 18 263 73.5t100 128.5q0 45 -40 85q-5 5 -12 5t-12 -5v0zM929 731q29 0 49 20.5t20 49.5t-20 49t-49 20t-49.5 -20t-20.5 -49t20.5 -49.5t49.5 -20.5v0zM929 836q14 0 24.5 -10.5t10.5 -24.5t-10.5 -24.5t-24.5 -10.5t-24.5 10.5t-10.5 24.5t10.5 24.5
t24.5 10.5v0z" />
    <glyph glyph-name="xingzhuang" unicode="&#xe6c0;" 
d="M626 100q-40 -53 -99.5 -83.5t-128.5 -30.5q-118 0 -201 83t-83 201q0 69 30.5 128.5t83.5 99.5q50 38 113 51q26 6 57 6q118 0 201.5 -83.5t83.5 -201.5q0 -31 -6 -57q-13 -63 -51 -113zM398 668q-32 0 -57 -4q-58 -8 -113 -34q-103 -49 -165.5 -145.5t-62.5 -214.5
q0 -108 53 -200t145 -145t200 -53q118 0 214.5 62.5t145.5 165.5q26 55 34 113q4 25 4 57q0 109 -53 200.5t-144.5 144.5t-200.5 53zM910 896h-569q-47 0 -80 -33.5t-33 -80.5v-284q50 38 113 51v233h569v-569h-233q-13 -63 -51 -113h284q47 0 80.5 33t33.5 80v569
q0 47 -33.5 80.5t-80.5 33.5v0z" />
    <glyph glyph-name="shangpin-copy1" unicode="&#xe64c;" 
d="M883 -4l-51 565q-2 24 -20.5 40.5t-41.5 16.5h-83v38q0 73 -51 124.5t-123.5 51.5t-124 -51.5t-51.5 -124.5v-144q-13 -6 -21.5 -17.5t-8.5 -26.5q0 -19 14 -33t33.5 -14t33 14t13.5 33q0 15 -8 26.5t-21 17.5v71h280v-72q-29 -11 -29 -43q0 -19 14 -33t33 -14t33 14
t14 33q0 15 -8.5 26.5t-21.5 17.5v71h83q10 0 18 -7.5t9 -17.5l51 -565q1 -9 -5 -15.5t-15 -6.5h-632q-9 0 -15 6.5t-5 15.5l51 565q1 10 8.5 17t17.5 8h101q7 0 12 5t5 12.5t-5 12.5t-12 5h-101q-23 0 -41 -16.5t-20 -40.5l-51 -565q-2 -24 14 -42t41 -18h632q25 0 41 18
t14 42v0v0zM652 618h-280v38q0 58 41 99.5t99 41.5t99 -41.5t41 -99.5v-38v0z" />
    <glyph glyph-name="dazhuanpan" unicode="&#xe630;" 
d="M869 741q-72 71 -164 109.5t-193 38.5t-193 -38.5t-163.5 -110t-110 -163.5t-38.5 -193t38.5 -193t110 -163.5t163.5 -110t193 -38.5t193 38.5t163.5 110t110 163.5t38.5 193t-38.5 193t-109.5 164v0zM826 70v0l-198 198q-31 -31 -73 -43l72 -270q-56 -15 -115 -15
t-115 15l72 270q-42 12 -73 43l-198 -198q-84 84 -115 199l270 72q-11 43 0 85l-270 73q31 115 115 199v0l198 -198q31 31 73 43l-72 270q56 15 115 15t115 -15l-72 -270q42 -12 73 -43l198 198v0q85 -84 115 -199l-270 -73q11 -42 0 -85l270 -72q-30 -114 -115 -199v0z
M539 521l-27 130l-25 -130q-43 -8 -73 -39q-41 -40 -41 -98t40.5 -98.5t98.5 -40.5t98.5 40.5t40.5 98.5t-41 98q-30 30 -71 39v0zM539 521z" />
    <glyph glyph-name="zitidaxiao" unicode="&#xe648;" 
d="M882 816l9 -238q0 -5 -3.5 -9t-8.5 -4h-5q-10 0 -13 10q-19 94 -54 122q-2 1 -6.5 5t-5.5 5t-5.5 4.5t-6.5 4t-6.5 3t-8.5 3t-10 2t-13 1.5t-15.5 0.5t-18.5 0.5h-78q-5 0 -9 -3.5t-4 -9.5v-625q0 -67 19 -87q1 0 1 -1q21 -18 70 -23q12 -1 12 -12v0q0 -6 -4 -9.5
t-9 -3.5h-329q-5 0 -9 3.5t-4 9.5v0q0 11 12 12q49 5 65 28q1 1 2 1q18 16 18 97v610q0 6 -4 9.5t-9 3.5h-78q-33 0 -51.5 -4t-23.5 -7.5t-20 -17.5v0l-1 -1q-36 -27 -54 -121q-2 -10 -13 -10h-5q-5 0 -8.5 4t-3.5 9l8 226q1 5 4.5 8.5t8.5 3.5h668v0zM367 244l3 -80
q0 -5 -4 -5h-2q-3 0 -4 4q-6 31 -18 40l-2 2q-9 8 -31 8h-26q-4 0 -4 -4v-211q0 -23 6 -29l1 -1q7 -6 23 -7q4 -1 4 -5v0q0 -4 -4 -4h-112q-4 0 -4 4v0q0 4 4 5q17 1 22 9h1q6 6 6 33v206q0 4 -4 4h-27q-11 0 -17.5 -1t-8 -2.5t-6.5 -5.5v-1q-12 -9 -19 -40q0 -4 -4 -4h-1
q-5 0 -4 5l2 76q0 4 4 4h226v0z" />
    <glyph glyph-name="a1left" unicode="&#xe61a;" 
d="M618 126l-257 257l257 257v-514z" />
    <glyph glyph-name="a1down" unicode="&#xe61b;" 
d="M770 490l-257 -257l-257 257h514z" />
    <glyph glyph-name="a1top" unicode="&#xe61c;" 
d="M254 278l257 257l257 -257h-514z" />
    <glyph glyph-name="a2left" unicode="&#xe61d;" 
d="M459 410l-27 -26v0v0l27 -26v0l423 -424l26 26l-423 424l424 423l-27 26zM591 -39l-423 423l424 424l-27 26l-450 -450l27 -26v0l423 -423zM591 -39z" />
    <glyph glyph-name="a3right" unicode="&#xe61e;" 
d="M753 360l1 1.5l1 1.5q7 15 4.5 32.5t-15.5 28.5l-391 370q-16 16 -38 15t-37 -17t-14.5 -38t16.5 -37l351 -332l-350 -337q-15 -15 -15.5 -37t14.5 -38q16 -16 38 -16t37 15l387 373l1.5 1.5l1 1l1.5 1.5q2 2 7 11v0zM753 360z" />
    <glyph glyph-name="a3top" unicode="&#xe61f;" 
d="M536 625l-1.5 1l-1.5 1q-15 7 -32.5 4.5t-28.5 -15.5l-370 -391q-16 -16 -15 -38t17 -37t38 -14.5t37 16.5l332 351l337 -350q15 -15 37 -15.5t38 14.5q16 16 16 38t-15 37l-373 387l-1.5 1.5l-1 1l-1.5 1.5q-2 2 -11 7v0zM536 625z" />
    <glyph glyph-name="a3down" unicode="&#xe620;" 
d="M488 143l1.5 -1l1.5 -1q15 -7 32.5 -4.5t28.5 15.5l370 391q16 16 15 38t-17 37t-38 14.5t-37 -16.5l-332 -351l-337 350q-15 15 -37 15.5t-38 -14.5q-16 -16 -16 -38t15 -37l373 -387l1.5 -1.5l1 -1l1.5 -1.5q2 -2 11 -7v0zM488 143z" />
    <glyph glyph-name="tuichu-copy" unicode="&#xe645;" 
d="M304 832h390q14 0 24 -10t10 -24.5t-10 -24.5t-24 -10h-390q-62 0 -100 -42t-38 -110v-446q0 -64 37 -111.5t101 -47.5h390q14 0 24 -10.5t10 -24.5t-10 -24.5t-24 -10.5h-390q-88 0 -147.5 65.5t-59.5 163.5v446q0 96 59 158.5t148 62.5zM304 419h574q14 0 24 -10
t10 -24.5t-10 -25t-24 -10.5h-574q-14 0 -24.5 10.5t-10.5 25t10.5 24.5t24.5 10zM698 608q14 0 24 -10l195 -194q10 -10 10 -24t-10 -25l-195 -194q-10 -10 -24 -10t-24 10t-10 24.5t10 24.5l170 170l-170 170q-10 10 -10 24t10 24t24 10z" />
    <glyph glyph-name="riqi" unicode="&#xe64d;" 
d="M115 509h795v-499h-795v499zM761 758v-50h149v-149h-795v149h149v50h-149q-19 0 -34.5 -15.5t-15.5 -34.5q-2 -666 0 -698q2 -24 16 -37t34 -13h795q3 0 6.5 0.5t12 3t14.5 7t11.5 15t5.5 24.5v698q0 19 -15.5 34.5t-34.5 15.5h-149zM413 758h199v-50h-199v50zM661 784
q0 10 7.5 17t17.5 7q11 0 18 -7t7 -17v-151q0 -10 -7.5 -17.5t-17.5 -7.5t-17.5 7.5t-7.5 17.5v151zM314 784q0 10 7.5 17t17.5 7t17 -7t7 -17v-151q0 -10 -7 -17.5t-17 -7.5q-11 0 -18 7.5t-7 17.5v151z" />
    <glyph glyph-name="pingfen" unicode="&#xe65e;" 
d="M794 -42l-282 148l-282 -148l54 314l-228 222l316 46l140 285l141 -285l316 -46l-229 -222zM183 453l165 -161l-39 -226l203 107l204 -107l-39 226l164 161l-227 33l-102 206l-101 -206z" />
    <glyph glyph-name="yunjisuan_xingneng" unicode="&#xe66a;" 
d="M717 440q11 6 13.5 17t-2.5 21q-7 10 -17.5 13t-21.5 -3l-151 -88q-6 4 -13 6q-6 2 -14 2q-22 0 -38.5 -16.5t-16.5 -39t16.5 -39t39 -16.5t39 16.5t16.5 39.5zM512 798q-92 0 -173 -35.5t-141.5 -95.5t-95 -141t-34.5 -173q0 -58 14 -112q14 -55 40 -103q28 -49 66 -90
q39 -41 88 -72q10 -6 21 -3q11 2 18 12q6 9 3 21q-2 11 -12 17q-36 23 -65 51t-52 62l30 17q10 5 13 16.5t-3 20.5q-6 11 -17 14t-21 -3l-29 -17q-16 32 -26 68q-9 36 -12 74h31q12 0 19.5 8t7.5 19.5t-7.5 20t-19.5 8.5h-31q3 38 13 74t26 69l28 -17q2 -1 7 -2q4 -1 7 -1
q7 0 13.5 3.5t9.5 10.5q7 9 3.5 20.5t-12.5 16.5l-28 17q21 30 47 56t57 47l16 -27q3 -7 10 -10.5t14 -3.5q4 0 7.5 1t6.5 3q10 6 13 17t-3 21l-16 27q33 16 68 25t72 12v-34q0 -12 8.5 -20t19.5 -8q12 0 20 7.5t8 20.5v34q38 -2 74 -12q37 -10 69 -26l-15 -26
q-5 -10 -2 -21t12 -17q3 -2 7 -3t7 -1q7 0 13.5 3.5t11.5 10.5l14 26q30 -20 57 -47q26 -26 47 -56l-26 -16q-11 -5 -13.5 -16.5t2.5 -20.5q5 -7 11.5 -10.5t13.5 -3.5q3 0 6.5 1t7.5 2l26 15q16 -32 25 -68q11 -37 13 -75h-30q-12 0 -20 -8t-8 -19.5t8 -19.5t20 -8h30
q-2 -37 -12 -73q-9 -35 -24 -67l-28 15q-11 6 -21.5 3t-17.5 -13q-5 -10 -2 -21q2 -11 13 -17l28 -16q-24 -34 -54 -63t-66 -52q-10 -6 -12.5 -17t3.5 -21q3 -6 10 -10q6 -3 13 -3q4 0 8 1t7 3q50 31 89 72t66 90q28 49 42 103q14 55 14 114q0 92 -34.5 172.5t-95 141
t-141.5 95.5q-80 36 -173 36z" />
    <glyph glyph-name="baoku" unicode="&#xe659;" 
d="M971 324l-406 -183q-29 -13 -46 -13t-44 13l-406 183q-14 8 -20.5 31t-6.5 46l64 -32v0l414 -192l414 192q1 0 10.5 5t26.5 13.5l27 13.5q0 -22 -7 -46.5t-20 -30.5zM971 516l-406 -183q-29 -13 -46 -13t-44 13l-406 183q-23 12 -23 43.5t23 46.5l406 215q27 14 46.5 14
t43.5 -14l406 -215q23 -13 22.5 -46.5t-22.5 -43.5zM520 784l-414 -223l414 -175l414 175zM520 -14l414 191q1 0 10.5 5t26.5 14t27 13q0 -22 -7 -46t-20 -31l-406 -183q-29 -12 -46 -12t-44 12l-405 183q-15 8 -21.5 31.5t-6.5 45.5l64 -32v0z" />
    <glyph glyph-name="xingneng" unicode="&#xe65a;" 
d="M461 1h-3q-9 1 -15 7.5t-6 15.5l-41 605l-109 -363q-2 -8 -9 -13t-15 -5q-19 1 -24 19l-38 155l-68 -68q-8 -7 -18 -7h-49v50h39l92 91q10 11 24 7t17 -18l28 -111l122 409q3 8 10.5 13t16 4t15 -7.5t6.5 -15.5l41 -616l109 326q5 15 21.5 16t24.5 -13l76 -154l28 55
q7 14 22 14h198v-50h-183l-42 -85q-7 -13 -22.5 -13t-22.5 13l-72 144l-129 -388q-6 -17 -24 -17z" />
  </font>
</defs>
</svg>
